<?xml version="1.0" encoding="UTF-8"?>
<svg xmlns="http://www.w3.org/2000/svg" width="720" height="480" viewBox="0 0 720 480" fill="none">
  <g clip-path="url(#clip0_703_309)">
    <path d="M0 0H720V480H0V0Z" fill="#006600"></path>
    <path d="M0 0H720V343H0V0Z" fill="white"></path>
    <path d="M0 0H720V137H0V0Z" fill="#CC0000"></path>
    <path d="M340.8 233.6C341.742 232.002 343.175 230.752 344.886 230.035C346.597 229.319 348.494 229.175 350.293 229.625C352.093 230.075 353.699 231.094 354.871 232.531C356.044 233.969 356.72 235.746 356.8 237.6V272H363.2V237.7C363.279 235.846 363.956 234.069 365.128 232.631C366.301 231.194 367.907 230.175 369.706 229.725C371.506 229.275 373.402 229.419 375.113 230.135C376.824 230.852 378.258 232.102 379.2 233.7C380.191 230.667 380.45 227.442 379.955 224.29C379.461 221.138 378.226 218.147 376.353 215.564C374.48 212.981 372.021 210.878 369.179 209.428C366.336 207.979 363.191 207.223 360 207.223C356.809 207.223 353.663 207.979 350.821 209.428C347.979 210.878 345.52 212.981 343.647 215.564C341.774 218.147 340.539 221.138 340.044 224.29C339.549 227.442 339.808 230.667 340.8 233.7" fill="#F8C300"></path>
    <path d="M345.4 224.7C348.208 224.12 351.127 224.435 353.746 225.601C356.366 226.767 358.553 228.725 360 231.2C361.448 228.725 363.635 226.767 366.254 225.601C368.874 224.435 371.793 224.12 374.6 224.7C374.181 221.122 372.462 217.823 369.771 215.429C367.08 213.035 363.603 211.712 360 211.712C356.398 211.712 352.921 213.035 350.23 215.429C347.538 217.823 345.82 221.122 345.4 224.7Z" fill="white"></path>
    <path d="M356.8 258.3C356.375 263.173 354.584 267.828 351.632 271.729C348.68 275.631 344.687 278.62 340.113 280.354C335.538 282.087 330.567 282.495 325.771 281.531C320.975 280.566 316.548 278.268 313 274.9C311.495 278.74 309.131 282.185 306.087 284.969C303.044 287.754 299.404 289.804 295.445 290.963C291.487 292.121 287.315 292.357 283.251 291.653C279.187 290.949 275.338 289.323 272 286.9C274.5 311.9 312 306.8 314.8 282.5C326.5 303.2 352.4 297.2 360 271.9L356.8 258.3Z" fill="#F8C300"></path>
    <path d="M331.8 302.6C326.5 313.9 316.1 315.8 307 306.7C307 306.7 310.6 304.1 314.6 303.4C313.8 300.3 315.3 295.9 317.5 293.6C320.412 295.51 322.569 298.373 323.6 301.7C329.1 301 331.8 302.7 331.8 302.7V302.6Z" fill="#F8C300"></path>
    <path d="M372.798 301.334C365.723 311.617 355.153 311.792 347.661 301.328C347.661 301.328 351.638 299.351 355.698 299.314C355.415 296.125 357.614 292.029 360.16 290.119C362.721 292.479 364.381 295.657 364.855 299.107C370.395 299.314 372.781 301.433 372.781 301.433L372.798 301.334Z" fill="#F8C300"></path>
    <path d="M363.2 258.301C363.625 263.174 365.416 267.829 368.368 271.73C371.32 275.632 375.313 278.621 379.887 280.355C384.462 282.088 389.433 282.496 394.229 281.532C399.025 280.567 403.452 278.268 407 274.901C408.505 278.741 410.869 282.186 413.913 284.97C416.956 287.755 420.596 289.805 424.555 290.964C428.513 292.122 432.685 292.358 436.749 291.654C440.813 290.95 444.662 289.324 448 286.901C445.5 311.901 408 306.801 405.2 282.501C393.5 303.201 367.6 297.2 360 271.9L363.2 258.301Z" fill="#F8C300"></path>
    <path d="M413.025 306.687C404.382 315.691 393.922 314.157 388.22 302.619C388.22 302.619 392.463 301.311 396.477 301.93C396.713 298.737 399.544 295.051 402.366 293.577C404.511 296.32 405.636 299.724 405.547 303.206C410.981 304.306 412.993 306.782 412.993 306.782L413.025 306.687Z" fill="#F8C300"></path>
    <path fill-rule="evenodd" clip-rule="evenodd" d="M424.931 333.072C382.562 320.46 337.438 320.46 295.069 333.072L291.931 322.529C336.347 309.308 383.652 309.308 428.069 322.529L424.931 333.072Z" fill="#F8C300"></path>
    <path d="M264.5 244L268.204 255.401H280.192L270.494 262.448L274.198 273.849L264.5 266.802L254.802 273.849L258.506 262.448L248.808 255.401H260.796L264.5 244Z" fill="#F8C300"></path>
    <path d="M277.5 196L281.204 207.401H293.192L283.494 214.448L287.198 225.849L277.5 218.802L267.802 225.849L271.506 214.448L261.808 207.401H273.796L277.5 196Z" fill="#F8C300"></path>
    <path d="M312.5 161L316.204 172.401H328.192L318.494 179.448L322.198 190.849L312.5 183.802L302.802 190.849L306.506 179.448L296.808 172.401H308.796L312.5 161Z" fill="#F8C300"></path>
    <path d="M360.5 148L364.204 159.401H376.192L366.494 166.448L370.198 177.849L360.5 170.802L350.802 177.849L354.506 166.448L344.808 159.401H356.796L360.5 148Z" fill="#F8C300"></path>
    <path d="M408.5 161L412.204 172.401H424.192L414.494 179.448L418.198 190.849L408.5 183.802L398.802 190.849L402.506 179.448L392.808 172.401H404.796L408.5 161Z" fill="#F8C300"></path>
    <path d="M443.5 196L447.204 207.401H459.192L449.494 214.448L453.198 225.849L443.5 218.802L433.802 225.849L437.506 214.448L427.808 207.401H439.796L443.5 196Z" fill="#F8C300"></path>
    <path d="M456.5 244L460.204 255.401H472.192L462.494 262.448L466.198 273.849L456.5 266.802L446.802 273.849L450.506 262.448L440.808 255.401H452.796L456.5 244Z" fill="#F8C300"></path>
  </g>
  <defs>
    <clipPath id="clip0_703_309">
      <rect width="720" height="480" fill="white"></rect>
    </clipPath>
  </defs>
</svg>
