<svg width="720" height="480" viewBox="0 0 720 480" fill="none" xmlns="http://www.w3.org/2000/svg">
<g clip-path="url(#clip0_703_793)">
<path d="M0 102H720V582H0V102Z" fill="#3F9C35"/>
<path d="M0 0H720V320H0V0Z" fill="#ED2939"/>
<path d="M0 0H720V160H0V0Z" fill="#00B9E4"/>
<path d="M344 312C383.765 312 416 279.765 416 240C416 200.235 383.765 168 344 168C304.235 168 272 200.235 272 240C272 279.765 304.235 312 344 312Z" fill="white"/>
<path d="M360 300C393.137 300 420 273.137 420 240C420 206.863 393.137 180 360 180C326.863 180 300 206.863 300 240C300 273.137 326.863 300 360 300Z" fill="#ED2939"/>
<path d="M424 200L431.7 221.5L452.3 211.7L442.5 232.4L464 240L442.5 247.7L452.3 268.3L431.7 258.5L424 280L416.3 258.5L395.7 268.3L405.5 247.7L384 240L405.5 232.3L395.7 211.7L416.3 221.5L424 200Z" fill="white"/>
</g>
<defs>
<clipPath id="clip0_703_793">
<rect width="720" height="480" fill="white"/>
</clipPath>
</defs>
</svg>
