<svg width="720" height="480" viewBox="0 0 720 480" fill="none" xmlns="http://www.w3.org/2000/svg">
<g clip-path="url(#clip0_703_800)">
<path d="M720 0H0V480H720V0Z" fill="white"/>
<path fill-rule="evenodd" clip-rule="evenodd" d="M49.0112 7.09236C40.6018 -1.52275 28.2449 -1.18351 19.8293 5.4218C11.2693 12.1405 7.02342 24.979 13.3929 40.9025L13.4374 41.0137L13.4915 41.1205C13.874 41.8752 14.2178 42.592 14.5535 43.2921C15.674 45.6283 16.7054 47.779 18.7927 50.5339C21.4724 54.0706 25.9208 58.6859 34.777 66.7914C43.2915 74.5842 47.1455 81.8298 48.9092 87.5016C50.4863 92.5728 50.4365 96.4848 50.4069 98.8152C50.4044 99.0144 50.402 99.2016 50.4008 99.3768C48.5771 110.345 40.5618 116.321 32.8663 116.703C28.9926 116.895 25.1591 115.684 22.0725 112.939C18.988 110.195 16.4779 105.762 15.5745 99.2298L15.5639 99.1536L15.549 99.078C15.4376 98.5122 15.4905 97.275 16.0324 95.6376C16.5532 94.0638 17.4461 92.3706 18.708 90.9228C21.1052 88.1718 24.8869 86.1972 30.5955 87.7506C34.7291 89.5818 35.8981 92.4738 35.6727 95.0526C35.4238 97.9014 33.4341 100.834 30.3685 102.248C29.0146 102.873 28.4236 104.477 29.0485 105.832C29.6734 107.185 31.2775 107.776 32.6314 107.152C37.3658 104.966 40.6262 100.398 41.0522 95.5224C41.499 90.4092 38.8008 85.3914 32.5636 82.7184L32.4026 82.6494L32.2342 82.6014C24.2378 80.3418 18.3009 83.1708 14.6369 87.375C12.8563 89.4186 11.6281 91.7586 10.9058 93.9414C10.2152 96.0282 9.90204 98.2344 10.2349 100.038C11.2902 107.572 14.2871 113.241 18.4837 116.974C22.6907 120.716 27.9323 122.354 33.1337 122.096C43.5415 121.58 53.6257 113.527 55.7666 100.022L55.7999 99.8124V99.6C55.7999 99.39 55.8034 99.147 55.8073 98.8734C55.8409 96.5064 55.9074 91.8204 54.0656 85.8984C52.0045 79.2696 47.6084 71.2152 38.4229 62.808C29.579 54.7138 25.4539 50.3837 23.0968 47.2727C21.3629 44.9845 20.6049 43.4069 19.5454 41.202C19.1986 40.4803 18.8195 39.6913 18.3633 38.7883C12.7968 24.7682 16.8087 14.6573 23.1634 9.6696C29.6711 4.56177 38.8991 4.44553 45.1652 10.883L45.1887 10.9072L45.2128 10.9308C50.97 16.5572 51.5949 23.9794 49.2133 29.3002C48.0224 31.9609 46.1203 34.012 43.8229 35.1177C41.593 36.1909 38.8015 36.4681 35.5359 35.3033C32.326 33.7676 30.5581 30.736 30.448 27.871C30.3419 25.1161 31.7462 22.4014 35.3776 21.1531C36.7877 20.6684 37.538 19.1323 37.0532 17.7221C36.5684 16.3119 35.0323 15.5617 33.6221 16.0465C27.6535 18.0982 24.8579 23.0335 25.0519 28.0786C25.2406 32.9837 28.2368 37.8687 33.3628 40.2487L33.4662 40.2967L33.5732 40.3358C38.1644 42.0134 42.5124 41.7412 46.1647 39.9835C49.7742 38.2463 52.509 35.1551 54.1421 31.5063C57.4051 24.2161 56.4319 14.3637 49.0112 7.09236Z" fill="#FFCC00"/>
<path fill-rule="evenodd" clip-rule="evenodd" d="M49.0112 125.654C40.6018 117.04 28.2449 117.379 19.8293 123.984C11.2693 130.703 7.02342 143.541 13.3929 159.464L13.4374 159.576L13.4915 159.683C13.874 160.438 14.2178 161.154 14.5535 161.854C15.674 164.191 16.7054 166.341 18.7927 169.096C21.4724 172.633 25.9208 177.248 34.777 185.354C43.2915 193.147 47.1455 200.392 48.9092 206.064C50.4863 211.135 50.4365 215.047 50.4069 217.378C50.4044 217.576 50.402 217.763 50.4008 217.939C48.5771 228.907 40.5618 234.884 32.8663 235.265C28.9926 235.457 25.1591 234.246 22.0725 231.501C18.988 228.757 16.4779 224.324 15.5745 217.792L15.5639 217.715L15.549 217.64C15.4376 217.075 15.4905 215.837 16.0324 214.2C16.5532 212.626 17.4461 210.933 18.708 209.485C21.1052 206.734 24.8869 204.759 30.5955 206.313C34.7291 208.144 35.8981 211.036 35.6727 213.614C35.4238 216.464 33.4341 219.395 30.3685 220.81C29.0146 221.435 28.4236 223.04 29.0485 224.393C29.6734 225.748 31.2775 226.339 32.6314 225.713C37.3658 223.528 40.6262 218.96 41.0522 214.084C41.499 208.971 38.8008 203.953 32.5636 201.28L32.4026 201.211L32.2342 201.164C24.2378 198.904 18.3009 201.733 14.6369 205.937C12.8563 207.98 11.6281 210.32 10.9058 212.503C10.2152 214.59 9.90204 216.796 10.2349 218.6C11.2902 226.135 14.2871 231.803 18.4837 235.535C22.6907 239.278 27.9323 240.917 33.1337 240.659C43.5415 240.143 53.6257 232.09 55.7666 218.585L55.7999 218.375V218.162C55.7999 217.952 55.8034 217.709 55.8073 217.435C55.8409 215.069 55.9074 210.383 54.0656 204.46C52.0045 197.832 47.6084 189.778 38.4229 181.37C29.579 173.276 25.4539 168.946 23.0968 165.835C21.3629 163.547 20.6049 161.969 19.5454 159.764C19.1986 159.043 18.8195 158.254 18.3633 157.351C12.7968 143.33 16.8087 133.219 23.1634 128.232C29.6711 123.124 38.8991 123.008 45.1652 129.445L45.1887 129.469L45.2128 129.493C50.97 135.119 51.5949 142.541 49.2133 147.862C48.0224 150.523 46.1203 152.574 43.8229 153.68C41.593 154.753 38.8015 155.03 35.5359 153.865C32.326 152.33 30.5581 149.298 30.448 146.433C30.3419 143.678 31.7462 140.963 35.3776 139.715C36.7877 139.231 37.538 137.695 37.0532 136.284C36.5684 134.874 35.0323 134.124 33.6221 134.609C27.6535 136.66 24.8579 141.596 25.0519 146.641C25.2406 151.546 28.2368 156.431 33.3628 158.811L33.4662 158.859L33.5732 158.898C38.1644 160.576 42.5124 160.303 46.1647 158.546C49.7742 156.808 52.509 153.717 54.1421 150.068C57.4051 142.778 56.4319 132.926 49.0112 125.654Z" fill="#FFCC00"/>
<path fill-rule="evenodd" clip-rule="evenodd" d="M49.6112 245.054C41.2018 236.44 28.8449 236.779 20.4293 243.384C11.8693 250.103 7.62342 262.941 13.9929 278.864L14.0374 278.976L14.0915 279.083C14.474 279.838 14.8178 280.554 15.1535 281.254C16.274 283.591 17.3054 285.741 19.3927 288.496C22.0724 292.033 26.5208 296.648 35.377 304.754C43.8915 312.547 47.7455 319.792 49.5092 325.464C51.0863 330.535 51.0365 334.447 51.0069 336.778C51.0044 336.976 51.002 337.163 51.0008 337.339C49.1771 348.307 41.1618 354.284 33.4663 354.665C29.5926 354.857 25.7591 353.646 22.6725 350.901C19.588 348.157 17.0779 343.724 16.1745 337.192L16.1639 337.115L16.149 337.04C16.0376 336.475 16.0905 335.237 16.6324 333.6C17.1532 332.026 18.0461 330.333 19.308 328.885C21.7052 326.134 25.4869 324.159 31.1955 325.713C35.3291 327.544 36.4981 330.436 36.2727 333.014C36.0238 335.864 34.0341 338.795 30.9685 340.21C29.6146 340.835 29.0236 342.44 29.6485 343.793C30.2734 345.148 31.8775 345.739 33.2314 345.113C37.9658 342.928 41.2262 338.36 41.6522 333.484C42.099 328.371 39.4008 323.353 33.1636 320.68L33.0026 320.611L32.8342 320.564C24.8378 318.304 18.9009 321.133 15.2369 325.337C13.4563 327.38 12.2281 329.72 11.5058 331.903C10.8152 333.99 10.502 336.196 10.8349 338C11.8902 345.535 14.8871 351.203 19.0837 354.935C23.2907 358.678 28.5323 360.317 33.7337 360.059C44.1415 359.543 54.2257 351.49 56.3666 337.985L56.3999 337.775V337.562C56.3999 337.352 56.4034 337.109 56.4073 336.835C56.4409 334.469 56.5074 329.783 54.6656 323.86C52.6045 317.232 48.2084 309.178 39.0229 300.77C30.179 292.676 26.0539 288.346 23.6968 285.235C21.9629 282.947 21.2049 281.369 20.1454 279.164C19.7986 278.443 19.4195 277.654 18.9633 276.751C13.3968 262.73 17.4087 252.619 23.7634 247.632C30.2711 242.524 39.4991 242.408 45.7652 248.845L45.7887 248.869L45.8128 248.893C51.57 254.519 52.1949 261.941 49.8133 267.262C48.6224 269.923 46.7203 271.974 44.4229 273.08C42.193 274.153 39.4015 274.43 36.1359 273.265C32.926 271.73 31.1581 268.698 31.048 265.833C30.9419 263.078 32.3462 260.363 35.9776 259.115C37.3877 258.631 38.138 257.095 37.6532 255.684C37.1684 254.274 35.6323 253.524 34.2221 254.009C28.2535 256.06 25.4579 260.996 25.6519 266.041C25.8406 270.946 28.8368 275.831 33.9628 278.211L34.0662 278.259L34.1732 278.298C38.7644 279.976 43.1124 279.703 46.7647 277.946C50.3742 276.208 53.109 273.117 54.7421 269.468C58.0051 262.178 57.0319 252.326 49.6112 245.054Z" fill="#FFCC00"/>
<path fill-rule="evenodd" clip-rule="evenodd" d="M49.6112 363.854C41.2018 355.24 28.8449 355.579 20.4293 362.184C11.8693 368.903 7.62342 381.741 13.9929 397.664L14.0374 397.776L14.0915 397.883C14.474 398.638 14.8178 399.354 15.1535 400.054C16.274 402.391 17.3054 404.541 19.3927 407.296C22.0724 410.833 26.5208 415.448 35.377 423.554C43.8915 431.347 47.7455 438.592 49.5092 444.264C51.0863 449.335 51.0365 453.247 51.0069 455.578C51.0044 455.776 51.002 455.963 51.0008 456.139C49.1771 467.107 41.1618 473.084 33.4663 473.465C29.5926 473.657 25.7591 472.446 22.6725 469.701C19.588 466.957 17.0779 462.524 16.1745 455.992L16.1639 455.915L16.149 455.84C16.0376 455.275 16.0905 454.037 16.6324 452.4C17.1532 450.826 18.0461 449.133 19.308 447.685C21.7052 444.934 25.4869 442.959 31.1955 444.513C35.3291 446.344 36.4981 449.236 36.2727 451.814C36.0238 454.664 34.0341 457.595 30.9685 459.011C29.6146 459.635 29.0236 461.24 29.6485 462.593C30.2734 463.948 31.8775 464.539 33.2314 463.913C37.9658 461.728 41.2262 457.16 41.6522 452.285C42.099 447.171 39.4008 442.153 33.1636 439.48L33.0026 439.411L32.8342 439.364C24.8378 437.104 18.9009 439.933 15.2369 444.137C13.4563 446.18 12.2281 448.52 11.5058 450.703C10.8152 452.79 10.502 454.996 10.8349 456.8C11.8902 464.335 14.8871 470.003 19.0837 473.735C23.2907 477.478 28.5323 479.117 33.7337 478.859C44.1415 478.343 54.2257 470.29 56.3666 456.785L56.3999 456.575V456.362C56.3999 456.152 56.4034 455.909 56.4073 455.635C56.4409 453.269 56.5074 448.583 54.6656 442.66C52.6045 436.032 48.2084 427.978 39.0229 419.57C30.179 411.476 26.0539 407.146 23.6968 404.035C21.9629 401.747 21.2049 400.169 20.1454 397.964C19.7986 397.243 19.4195 396.454 18.9633 395.551C13.3968 381.53 17.4087 371.419 23.7634 366.432C30.2711 361.324 39.4991 361.208 45.7652 367.645L45.7887 367.669L45.8128 367.693C51.57 373.319 52.1949 380.741 49.8133 386.062C48.6224 388.723 46.7203 390.774 44.4229 391.88C42.193 392.953 39.4015 393.23 36.1359 392.065C32.926 390.53 31.1581 387.498 31.048 384.633C30.9419 381.878 32.3462 379.163 35.9776 377.915C37.3877 377.431 38.138 375.895 37.6532 374.484C37.1684 373.074 35.6323 372.324 34.2221 372.809C28.2535 374.86 25.4579 379.796 25.6519 384.841C25.8406 389.746 28.8368 394.631 33.9628 397.011L34.0662 397.059L34.1732 397.098C38.7644 398.776 43.1124 398.503 46.7647 396.746C50.3742 395.008 53.109 391.917 54.7421 388.268C58.0051 380.978 57.0319 371.126 49.6112 363.854Z" fill="#FFCC00"/>
<path d="M66.6 326.4H720V480L66.6 480V326.4Z" fill="#DA251D"/>
<path d="M66.6 0H720V283.8H66.6V0Z" fill="#2B7338"/>
</g>
<defs>
<clipPath id="clip0_703_800">
<rect width="720" height="480" fill="white"/>
</clipPath>
</defs>
</svg>
