<svg width="720" height="480" viewBox="0 0 720 480" fill="none" xmlns="http://www.w3.org/2000/svg">
<g clip-path="url(#clip0_703_808)">
<path d="M720 0H0V490H720V0Z" fill="white"/>
<path d="M0 325.36H720V480.2H0V325.36Z" fill="#209C3A"/>
<path d="M0 0H720V164.64H0V0Z" fill="#008EB7"/>
<path d="M0 178.36H720V310.66H0V178.36Z" fill="#F7BD29"/>
<path d="M0 310.66H720V321.44H0V310.66Z" fill="#DA251D"/>
<path d="M0 168.56H720V179.34H0V168.56Z" fill="#DA251D"/>
<path d="M167.969 82.3047C167.969 106.195 148.206 125.562 123.828 125.562C99.45 125.562 79.6875 106.195 79.6875 82.3047C79.6875 58.4141 99.45 39.0469 123.828 39.0469C148.206 39.0469 167.969 58.4141 167.969 82.3047Z" fill="white"/>
<path d="M177.344 82.3047C177.344 102.813 160.38 119.438 139.453 119.438C118.527 119.438 101.562 102.813 101.562 82.3047C101.562 61.7968 118.527 45.1719 139.453 45.1719C160.38 45.1719 177.344 61.7968 177.344 82.3047Z" fill="#008EB7"/>
<path d="M207.422 67.375L211.719 80.3363H225.626L214.375 88.347L218.672 101.308L207.422 93.2975L196.171 101.308L200.469 88.347L189.218 80.3363H203.125L207.422 67.375Z" fill="white"/>
<path d="M248.828 67.375L253.126 80.3363H267.032L255.781 88.347L260.079 101.308L248.828 93.2975L237.577 101.308L241.875 88.347L230.624 80.3363H244.531L248.828 67.375Z" fill="white"/>
<path d="M228.515 91.1094L232.813 104.071H246.719L235.469 112.081L239.766 125.043L228.515 117.032L217.265 125.043L221.562 112.081L210.312 104.071H224.219L228.515 91.1094Z" fill="white"/>
<path d="M187.109 91.1094L191.407 104.071H205.313L194.062 112.081L198.36 125.043L187.109 117.032L175.858 125.043L180.156 112.081L168.905 104.071H182.812L187.109 91.1094Z" fill="white"/>
<path d="M269.14 91.1094L273.438 104.071H287.344L276.094 112.081L280.391 125.043L269.14 117.032L257.89 125.043L262.187 112.081L250.937 104.071H264.844L269.14 91.1094Z" fill="white"/>
</g>
<defs>
<clipPath id="clip0_703_808">
<rect width="720" height="480" fill="white"/>
</clipPath>
</defs>
</svg>
