<svg width="720" height="480" viewBox="0 0 720 480" fill="none" xmlns="http://www.w3.org/2000/svg">
<path fill-rule="evenodd" clip-rule="evenodd" d="M0 0H720V480H0V0Z" fill="#FF0000"/>
<path fill-rule="evenodd" clip-rule="evenodd" d="M218.679 244.781C231.415 229.219 257.919 244.406 279.553 233.25C253.892 234.656 239.938 220.875 219.709 222.844C240.687 209.906 258.575 227.062 281.988 220.219C250.989 217.594 252.3 203.625 224.017 201.656C249.116 190.969 261.478 212.719 286.108 207.75C257.076 201.094 253.33 184.031 231.79 180.375C263.257 175.688 261.197 194.25 292.008 196.5C260.729 183.094 268.876 171.375 242.747 161.156C272.06 160.5 270.094 180.844 299.875 186.094C274.402 169.969 277.492 155.25 256.608 143.719C281.426 144.188 283.767 169.594 309.147 177.469C286.577 159.562 292.477 144.375 272.997 128.344C297.721 134.156 294.069 156.094 319.823 170.156C300.718 148.969 308.023 133.781 291.447 116.438C315.234 124.031 306.15 144.938 330.781 164.812C316.733 141.469 325.442 126.562 311.488 106.969C333.59 118.312 322.914 139.688 343.33 160.875C333.684 136.969 343.33 122.156 333.497 100.969C352.414 115.031 341.176 137.812 356.441 159.562C350.822 129.562 363.746 124.688 359.719 98.4375C374.048 116.062 358.033 133.688 369.084 159.656C367.68 130.125 383.413 123.281 380.697 99.6562C394.839 120.844 372.737 139.312 382.008 162C384.35 134.062 402.706 126.75 402.987 105C414.225 124.969 389.875 139.406 393.809 165.938C401.769 136.688 421.342 133.125 423.777 113.438C430.427 136.5 403.736 147.188 405.328 172.875C413.288 146.906 437.732 143.812 442.789 124.688C445.879 149.062 421.811 153.469 414.974 180.469C427.617 158.438 449.813 156.656 459.74 139.219C458.991 163.406 431.832 166.594 423.497 189.188C439.136 169.969 458.803 173.25 474.443 156.281C472.758 178.125 445.13 176.906 430.427 199.5C447.378 183.844 472.945 188.531 485.963 175.031C485.307 194.344 451.405 192.844 435.39 210.188C455.057 199.312 480.156 205.688 494.579 195.656C491.956 212.531 456.181 208.594 439.043 221.906C462.643 215.344 480.905 225.375 499.917 218.156C490.645 234.562 458.148 224.156 440.916 234.844C461.519 231.375 483.247 243.844 501.884 239.813C495.796 254.063 460.115 238.875 441.01 247.781C463.861 247.594 478.751 262.312 500.011 261.281C488.491 274.219 457.211 256.5 438.949 259.5C461.238 264.188 478.283 282.562 495.141 283.5C481.186 294.094 455.338 269.906 434.267 272.906C455.994 278.719 474.162 303.375 486.525 303.938C473.132 313.125 446.722 282.844 428.647 283.969C450.656 293.906 460.677 319.125 475.193 322.688C457.305 328.406 439.698 295.313 420.5 294.094C442.789 308.156 444.006 329.719 461.145 339.281C443.07 343.688 430.24 306.281 411.228 303.094C429.49 316.5 432.3 345.281 444.381 354.281C426.025 355.219 419.376 316.125 400.552 310.5C416.66 324 412.82 353.25 425.37 365.813C406.264 361.781 408.699 327.75 388.751 316.219C403.08 334.406 395.775 360.188 405.141 374.719C386.504 367.219 394.558 336.656 376.858 319.406C386.504 338.719 376.108 361.219 383.788 379.875C366.743 371.531 378.169 335.438 365.151 321.094C371.145 343.406 360.094 361.875 364.589 381.844C347.17 361.688 367.211 341.344 352.133 320.813C356.067 344.344 339.584 360.844 342.206 380.531C328.439 364.406 349.698 338.625 338.928 318.281C341.176 341.438 319.917 361.781 321.415 376.406C310.177 357.656 333.871 335.531 327.503 314.25C326.192 336.375 304.652 348.375 300.625 368.531C293.413 346.313 318.98 330.281 316.733 308.438C309.428 329.156 288.637 337.5 281.332 357.656C275.338 335.438 305.682 323.719 306.431 300.469C297.066 322.219 272.248 327.094 264.006 343.781C260.916 321.75 295.661 311.906 296.972 291C285.734 311.062 258.575 311.906 249.209 327.844C247.805 305.906 284.423 303.188 290.135 280.219C278.991 297.281 249.209 295.125 236.754 309C238.72 288.656 278.335 287.438 284.704 269.062C269.906 283.312 242.56 277.5 227.107 288.75C235.723 268.688 272.903 272.906 281.238 258.469C264.849 267 235.723 258.656 221.301 267.281C234.412 248.344 263.257 259.688 279.646 246.656C253.049 250.5 237.034 239.906 218.585 244.781H218.679Z" fill="#FFFF00"/>
<path fill-rule="evenodd" clip-rule="evenodd" d="M452.9 240C452.9 264.678 443.107 288.344 425.676 305.794C408.244 323.244 384.602 333.047 359.95 333.047C335.298 333.047 311.656 323.244 294.224 305.794C276.793 288.344 267 264.678 267 240C267 215.335 276.788 191.68 294.211 174.239C311.633 156.798 335.264 147 359.903 147C384.543 147 408.173 156.798 425.596 174.239C443.018 191.68 452.806 215.335 452.806 240H452.9Z" fill="#FFFF00"/>
<path fill-rule="evenodd" clip-rule="evenodd" d="M440.912 240.187C440.912 261.645 432.397 282.224 417.24 297.397C402.083 312.57 381.525 321.094 360.09 321.094C338.655 321.094 318.097 312.57 302.94 297.397C287.783 282.224 279.268 261.645 279.268 240.187C279.268 218.73 287.783 198.151 302.94 182.978C318.097 167.805 338.655 159.281 360.09 159.281C381.525 159.281 402.083 167.805 417.24 182.978C432.397 198.151 440.912 218.73 440.912 240.187Z" fill="#FF0000"/>
<path fill-rule="evenodd" clip-rule="evenodd" d="M430.052 240.469C430.052 258.893 422.741 276.563 409.726 289.591C396.712 302.618 379.061 309.938 360.656 309.938C342.251 309.938 324.599 302.618 311.585 289.591C298.571 276.563 291.259 258.893 291.259 240.469C291.259 222.044 298.571 204.375 311.585 191.347C324.599 178.319 342.251 171 360.656 171C379.061 171 396.712 178.319 409.726 191.347C422.741 204.375 430.052 222.044 430.052 240.469Z" fill="#FFFF00"/>
<path fill-rule="evenodd" clip-rule="evenodd" d="M301.561 195C320.76 194.531 344.641 196.313 360.468 208.875C377.377 198.311 397.284 193.601 417.128 195.469L427.43 214.313C411.422 212.85 395.306 215.496 380.604 222C391.112 229.758 399.56 239.976 405.209 251.76C410.858 263.544 413.536 276.534 413.007 289.594C410.479 292.781 406.452 296.25 403.923 299.438C407.669 272.719 393.621 242.906 373.111 227.25C389.781 251.25 399.615 272.812 396.899 302.625L387.534 308.625C391.842 282.375 385.661 251.438 366.275 233.625C377.513 250.031 388.564 279.563 381.634 309.563C378.637 310.5 373.954 313.031 370.957 313.875C374.629 301.567 375.626 288.614 373.881 275.888C372.137 263.162 367.691 250.957 360.843 240.094C347.919 258.656 343.704 286.969 351.009 313.219C347.451 312.281 344.735 311.156 341.082 310.312C335.744 282.188 343.143 250.313 355.973 233.719C342.862 241.313 330.593 273.75 334.058 306.844L325.349 302.812C321.134 278.156 332.279 246 348.293 227.438C330.125 238.875 315.328 267.094 317.856 297.375C315.047 294.938 312.518 293.719 309.709 291.188C306.524 264.75 321.883 238.125 339.771 222.188C324.693 215.344 311.675 214.031 292.945 214.313C295.848 208.219 298.564 201.094 301.561 194.906V195Z" fill="#FF0000"/>
</svg>
