<svg width="720" height="480" viewBox="0 0 720 480" fill="none" xmlns="http://www.w3.org/2000/svg">
<g clip-path="url(#clip0_703_286)">
<path fill-rule="evenodd" clip-rule="evenodd" d="M0 0H720V480H0V0Z" fill="#00ABC2"/>
<path fill-rule="evenodd" clip-rule="evenodd" d="M85.1998 467C88.4998 470.2 87.3998 475.5 96.4998 474.799C110.3 474.799 110.7 466.4 110.7 460.5C110.7 454.6 89.9998 446.4 88.9998 437.7C87.9998 429 93.7998 426.7 98.5998 426.7C103.3 426.7 106.6 429.4 106.6 431.799C106.6 434.199 104.4 435 101 435C97.5998 435 102.5 433.299 99.5998 432C96.6998 430.7 94.7998 434 94.7998 436C94.7998 438.2 102 438.799 106.8 437.299C107.8 442 108.2 442.299 101.5 450.299C106.3 447.199 106.7 446.5 112 448.299C106.7 443.699 110.7 434.5 110.8 432.2C110.9 429.9 109.8 427.099 107.8 425.699C103.9 422.199 95.5998 421.999 90.5998 424.299C83.2998 427.499 82.8998 437.099 84.7998 440.299L105 460.7C106.4 463.1 107 469.9 98.3998 470.2C89.3998 470.9 86.1998 458.6 84.5998 454.5C82.4998 459 80.0998 471.299 70.9998 470.599C62.3998 470.299 60.7998 463.599 62.1998 461.099L82.8998 440.099C84.8998 436.899 84.4998 427.299 77.1998 424.099C72.1998 421.799 63.8998 422.099 60.0998 425.499C57.8998 426.899 56.6998 429.6 56.8998 432C57.0998 434.4 60.9998 443.5 55.7998 448C60.9998 446.299 61.4998 447 66.2998 450C59.5998 442.1 60.0998 441.799 60.9998 437C65.7998 438.6 72.9998 437.999 72.9998 435.899C72.9998 433.799 70.9998 430.3 68.0998 431.7C65.2998 433.1 70.0998 434.799 66.6998 434.799C63.3998 434.799 60.9998 434.099 60.9998 431.799C60.9998 429.5 64.2998 426.499 69.0998 426.499C73.8998 426.499 79.5998 428.899 78.5998 437.599C77.5998 446.299 56.5998 455.699 56.5998 461.599C56.5998 467.599 57.9998 474.7 71.7998 474.7C80.7998 475.4 81.8998 470.099 85.1998 466.899V467Z" fill="#FFEC2D"/>
<path fill-rule="evenodd" clip-rule="evenodd" d="M84.1002 343.3C87.4002 340.1 90.1002 330.7 99.1002 331.3C112.9 331.3 118.1 339 118.1 344.9C118.1 350.8 90.1002 398.9 89.1002 407.6C88.1002 416.3 93.9002 418.7 98.6002 418.7C103.4 418.7 106.7 416 106.7 413.5C106.7 411 104.3 410.5 101 410.5C97.7002 410.5 102.4 412.2 99.6002 413.5C96.8002 414.8 94.8002 411.5 94.8002 409.4C94.8002 407.3 102 406.6 106.8 408.2C107.7 403.5 108.1 403.2 101.5 395.2C106.3 398.2 106.7 399 112 397.2C106.7 401.8 110.6 410.9 110.8 413.2C111 415.5 109.8 418.4 107.7 419.8C103.9 423.3 95.5002 423.4 90.5002 421.2C83.3002 417.9 82.9002 408.4 84.8002 405.2L112 346.6C113.5 344.2 109.7 336.2 101.1 335.9C92.1002 335.2 89.0002 344.7 87.4002 348.8L99.7002 347.8C99.7002 347.8 100.2 349.8 99.7002 351C95.5734 351.302 91.4668 351.836 87.4002 352.6L86.9002 358.8H92.9002L92.5002 361.6C92.5002 361.6 87.4002 361.2 86.9002 361.6C86.4002 361.9 85.9002 367.8 85.9002 367.8C85.9002 367.8 84.9002 368.2 83.9002 368.2C82.9002 368.2 81.9002 367.8 81.9002 367.8C81.9002 367.8 81.5002 361.9 81.0002 361.6C80.5002 361.2 75.4002 361.6 75.4002 361.6L74.9002 358.8H81.0002L80.5002 352.6C80.5002 352.6 74.5002 351.4 68.2002 351C67.8002 349.8 68.2002 347.9 68.2002 347.9L80.5002 348.8C78.9002 344.7 75.8002 335.2 66.8002 335.8C58.2002 336.2 54.4002 344.2 55.8002 346.6L83.0002 405.2C84.9002 408.3 84.5002 417.9 77.3002 421.2C72.3002 423.4 63.9002 423.2 60.1002 419.8C58.0002 418.4 56.8002 415.6 57.0002 413.3C57.2002 411 61.0002 401.7 55.8002 397.3C61.1002 399 61.6002 398.3 66.3002 395.2C59.7002 403.2 60.1002 403.5 61.1002 408.2C65.8002 406.6 73.0002 407.2 73.0002 409.4C73.0002 411.4 71.0002 414.9 68.2002 413.5C65.4002 412.1 70.2002 410.5 66.8002 410.5C63.5002 410.5 61.1002 411.1 61.1002 413.5C61.1002 415.9 64.4002 418.7 69.1002 418.7C73.8002 418.7 79.6002 416.3 78.7002 407.7C77.7002 399 49.7002 350.7 49.7002 344.9C49.7002 338.9 54.9002 331.4 68.7002 331.4C77.7002 330.7 81.0002 340.1 84.2002 343.3H84.1002Z" fill="#FFEC2D"/>
<path fill-rule="evenodd" clip-rule="evenodd" d="M84.1002 319.4C87.4002 322.6 90.1002 332 99.1002 331.4C112.9 331.4 118.1 323.7 118.1 317.8C118.1 311.9 90.1002 263.8 89.1002 255.1C88.1002 246.4 93.9002 244 98.6002 244C103.4 244 106.7 246.7 106.7 249.2C106.7 251.7 104.3 252.2 101 252.2C97.7002 252.2 102.4 250.6 99.6002 249.2C96.8002 247.8 94.8002 251.2 94.8002 253.3C94.8002 255.4 102 256.1 106.8 254.5C107.7 259.2 108.1 259.5 101.5 267.5C106.3 264.5 106.7 263.7 112 265.5C106.7 260.9 110.6 251.8 110.8 249.5C111 247.2 109.8 244.3 107.7 242.9C103.9 239.5 95.5002 239.3 90.5002 241.5C83.3002 244.8 82.9002 254.3 84.8002 257.5L112 316C113.5 318.4 109.7 326.4 101.1 326.7C92.1002 327.4 89.0002 317.9 87.4002 313.8L99.7002 314.8C99.7002 314.8 100.2 312.8 99.7002 311.6C95.5734 311.298 91.4668 310.764 87.4002 310L86.9002 303.8H92.9002L92.5002 301C92.5002 301 87.4002 301.4 86.9002 301C86.4002 300.7 85.9002 294.8 85.9002 294.8C85.9002 294.8 84.9002 294.4 83.9002 294.4C82.9002 294.4 81.9002 294.8 81.9002 294.8C81.9002 294.8 81.5002 300.7 81.0002 301C80.5002 301.4 75.4002 301 75.4002 301L74.9002 303.8H81.0002L80.5002 310C80.5002 310 74.5002 311.2 68.2002 311.6C67.8002 312.8 68.2002 314.7 68.2002 314.7L80.5002 313.8C78.9002 317.9 75.8002 327.4 66.8002 326.8C58.2002 326.4 54.4002 318.4 55.8002 316L83.0002 257.5C84.9002 254.3 84.5002 244.8 77.3002 241.5C72.3002 239.3 63.9002 239.5 60.1002 242.9C58.0002 244.3 56.8002 247.1 57.0002 249.4C57.2002 251.7 61.0002 260.9 55.8002 265.4C61.1002 263.7 61.6002 264.4 66.3002 267.5C59.7002 259.5 60.1002 259.2 61.1002 254.5C65.8002 256.1 73.0002 255.5 73.0002 253.3C73.0002 251.3 71.0002 247.8 68.2002 249.2C65.4002 250.6 70.2002 252.2 66.8002 252.2C63.5002 252.2 61.1002 251.6 61.1002 249.2C61.1002 246.8 64.4002 244 69.1002 244C73.8002 244 79.6002 246.4 78.7002 255C77.7002 263.7 49.7002 312 49.7002 317.8C49.7002 323.8 54.9002 331.3 68.7002 331.3C77.7002 332 81.0002 322.6 84.2002 319.4H84.1002Z" fill="#FFEC2D"/>
<path fill-rule="evenodd" clip-rule="evenodd" d="M84.1002 160.6C87.4002 157.4 90.1002 148 99.1002 148.6C112.9 148.6 118.1 156.3 118.1 162.2C118.1 168.1 90.1002 216.2 89.1002 225C88.1002 233.6 93.9002 236 98.6002 236C103.4 236 106.7 233.3 106.7 230.9C106.7 228.5 104.3 227.7 101 227.7C97.7002 227.7 102.4 229.5 99.6002 230.9C96.8002 232.3 94.8002 228.8 94.8002 226.7C94.8002 224.7 102 223.9 106.8 225.5C107.7 220.8 108.1 220.5 101.5 212.5C106.3 215.6 106.7 216.3 112 214.5C106.7 219.1 110.6 228.3 110.8 230.5C111 232.7 109.8 235.7 107.7 237.1C103.9 240.6 95.5002 240.7 90.5002 238.5C83.3002 235.2 82.9002 225.7 84.8002 222.5L112 164C113.5 161.6 109.7 153.6 101.1 153.3C92.1002 152.6 89.0002 162.1 87.4002 166.2L99.7002 165.2C99.7002 165.2 100.2 167.2 99.7002 168.4C93.3002 168.8 87.4002 170 87.4002 170L86.9002 176.2H92.9002L92.5002 179C92.5002 179 87.4002 178.7 86.9002 179C86.4002 179.3 85.9002 185.3 85.9002 185.3C85.9002 185.3 84.9002 185.6 83.9002 185.6C82.9002 185.6 81.9002 185.3 81.9002 185.3C81.9002 185.3 81.5002 179.3 81.0002 179C80.5002 178.7 75.4002 179 75.4002 179L74.9002 176.2H81.0002L80.5002 170C80.5002 170 74.5002 168.8 68.2002 168.4C67.8002 167.2 68.2002 165.3 68.2002 165.3L80.5002 166.2C78.9002 162.1 75.8002 152.6 66.8002 153.2C58.2002 153.6 54.4002 161.6 55.8002 164L83.0002 222.5C84.9002 225.7 84.5002 235.2 77.3002 238.5C72.3002 240.7 63.9002 240.5 60.1002 237.1C58.0002 235.7 56.8002 232.9 57.0002 230.6C57.2002 228.3 61.0002 219.1 55.8002 214.6C61.1002 216.3 61.6002 215.6 66.3002 212.5C59.7002 220.5 60.1002 220.8 61.1002 225.5C65.8002 223.9 73.0002 224.6 73.0002 226.7C73.0002 228.7 71.0002 232.2 68.2002 230.8C65.4002 229.5 70.2002 227.8 66.8002 227.8C63.5002 227.8 61.1002 228.4 61.1002 230.8C61.1002 233.2 64.4002 236 69.1002 236C73.8002 236 79.6002 233.6 78.7002 225C77.7002 216.3 49.7002 168.1 49.7002 162.2C49.7002 156.3 54.9002 148.7 68.7002 148.7C77.7002 148 81.0002 157.4 84.2002 160.7L84.1002 160.6Z" fill="#FFEC2D"/>
<path fill-rule="evenodd" clip-rule="evenodd" d="M84.1002 136.7C87.4002 139.9 90.1002 149.4 99.1002 148.7C112.9 148.7 118.1 141 118.1 135.1C118.1 129.2 90.1002 81.0997 89.1002 72.3997C88.1002 63.6997 93.9002 61.2997 98.6002 61.2997C103.4 61.2997 106.7 64.0997 106.7 66.4997C106.7 68.8997 104.3 69.5997 101 69.5997C97.7002 69.5997 102.4 67.8997 99.6002 66.4997C96.8002 65.0997 94.8002 68.4997 94.8002 70.5997C94.8002 72.6997 102 73.3997 106.8 71.7997C107.7 76.4997 108.1 76.7997 101.5 84.7997C106.3 81.7997 106.7 80.9997 112 82.7997C106.7 78.2997 110.6 69.0997 110.8 66.7997C111 64.4997 109.8 61.5997 107.7 60.1997C103.9 56.7997 95.5002 56.5997 90.5002 58.8997C83.3002 62.0997 82.9002 71.6997 84.8002 74.7997L112 133.4C113.5 135.8 109.7 143.8 101.1 144.2C92.1002 144.8 89.0002 135.4 87.4002 131.2L99.7002 132.2C99.7002 132.2 100.2 130.2 99.7002 129C95.5756 128.728 91.4692 128.227 87.4002 127.5L86.9002 121.2H92.9002L92.5002 118.4C92.5002 118.4 87.4002 118.8 86.9002 118.4C86.4002 118.1 85.9002 112.2 85.9002 112.2C85.9002 112.2 84.9002 111.8 83.9002 111.8C82.9002 111.8 81.9002 112.2 81.9002 112.2C81.9002 112.2 81.5002 118.1 81.0002 118.4C80.5002 118.8 75.4002 118.4 75.4002 118.4L74.9002 121.2H81.0002L80.5002 127.5C80.5002 127.5 74.5002 128.6 68.2002 129C67.8002 130.3 68.2002 132.2 68.2002 132.2L80.5002 131.2C78.9002 135.4 75.8002 144.8 66.8002 144.2C58.2002 143.8 54.4002 135.8 55.8002 133.4L83.0002 74.7997C84.9002 71.6997 84.5002 62.0997 77.3002 58.7997C72.3002 56.5997 63.9002 56.7997 60.1002 60.1997C58.0002 61.5997 56.8002 64.3997 57.0002 66.6997C57.2002 68.9997 61.0002 78.2997 55.8002 82.6997C61.1002 80.9997 61.6002 81.6997 66.3002 84.7997C59.7002 76.7997 60.1002 76.4997 61.1002 71.7997C65.9002 73.3997 73.0002 72.7997 73.0002 70.5997C73.0002 68.5997 71.0002 65.0997 68.2002 66.4997C65.4002 67.8997 70.2002 69.5997 66.8002 69.5997C63.5002 69.5997 61.1002 68.8997 61.1002 66.4997C61.1002 64.0997 64.4002 61.2997 69.1002 61.2997C73.8002 61.2997 79.7002 63.6997 78.7002 72.2997C77.7002 80.9997 49.7002 129.3 49.7002 135.1C49.7002 141.1 54.9002 148.7 68.7002 148.7C77.7002 149.4 81.0002 139.9 84.2002 136.7H84.1002Z" fill="#FFEC2D"/>
<path fill-rule="evenodd" clip-rule="evenodd" d="M85.1998 12.9997C88.4998 9.79968 87.3998 4.49968 96.4998 5.19968C110.3 5.19968 110.7 13.5997 110.7 19.4997C110.7 25.3997 89.9998 33.5997 88.9998 42.2997C87.9998 50.9997 93.7998 53.2997 98.5998 53.2997C103.3 53.2997 106.6 50.5997 106.6 48.1997C106.6 45.7997 104.4 44.9997 101 44.9997C97.5998 44.9997 102.5 46.6997 99.5998 47.9997C96.6998 49.2997 94.7998 45.9997 94.7998 43.9997C94.7998 41.7997 102 41.0997 106.8 42.6997C107.8 37.9997 108.2 37.6997 101.5 29.6997C106.3 32.7997 106.7 33.4997 112 31.6997C106.7 36.2997 110.7 45.4997 110.8 47.7997C110.9 50.0997 109.8 52.8997 107.8 54.2997C103.8 57.9997 95.4998 57.9997 90.4998 55.7997C83.1998 52.5997 82.7998 42.9997 84.6998 39.7997L105 19.2997C106.4 16.8997 107 10.0997 98.3998 9.79968C89.3998 9.09968 86.1998 21.3997 84.5998 25.4997C82.4998 20.9997 80.0998 8.59968 70.9998 9.29968C62.3998 9.59968 60.7998 16.2997 62.1998 18.7997L82.8998 39.7997C84.8998 42.9997 84.4998 52.5997 77.1998 55.7997C72.1998 58.0997 63.8998 57.8997 60.0998 54.3997C57.8998 52.9997 56.6998 50.2997 56.8998 47.8997C57.0998 45.4997 60.9998 36.3997 55.7998 31.8997C60.9998 33.5997 61.4998 32.8997 66.1998 29.8997C59.5998 37.7997 60.0998 38.0997 60.9998 42.8997C65.7998 41.2997 72.9998 41.8997 72.9998 43.9997C72.9998 46.0997 70.9998 49.5997 68.0998 48.1997C65.2998 46.7997 70.0998 45.0997 66.6998 45.0997C63.3998 45.0997 60.9998 45.7997 60.9998 48.0997C60.9998 50.3997 64.2998 53.3997 69.0998 53.3997C73.8998 53.3997 79.5998 50.9997 78.5998 42.2997C77.5998 33.5997 56.5998 24.1997 56.5998 18.2997C56.5998 12.2997 57.9998 5.19968 71.7998 5.19968C80.7998 4.49968 81.8998 9.79968 85.1998 12.9997Z" fill="#FFEC2D"/>
<path d="M481.518 205.911C481.518 158.371 440.853 119.833 390.691 119.833C340.528 119.833 299.863 158.371 299.863 205.911C299.863 253.45 340.528 291.988 390.691 291.988C440.853 291.988 481.518 253.45 481.518 205.911Z" fill="#FFEC2D"/>
<path fill-rule="evenodd" clip-rule="evenodd" d="M386.421 68.4954C385.567 68.4954 381.512 97.099 380.018 103.503C378.523 117.911 399.229 117.378 395.814 102.969L386.421 68.3887V68.4954ZM393.679 345.78C394.426 345.78 400.616 317.496 402.644 311.199C405.099 297.004 384.393 296.257 386.635 310.772L393.679 345.78ZM248.953 205.323C248.953 206.07 278.731 212.047 285.348 213.968C300.29 216.423 301.358 196.892 285.988 199.026L248.953 205.43V205.323ZM538.939 208.739C538.939 207.992 508.841 203.082 502.117 201.374C487.068 199.56 486.961 219.091 502.117 216.423L538.939 208.739ZM279.478 114.603C278.944 115.136 298.583 137.336 302.532 142.779C312.778 153.452 326.332 138.51 312.778 131.253L279.478 114.709V114.603ZM504.785 297.111C505.319 296.577 483.759 276.085 479.276 271.069C468.07 261.25 456.009 277.153 470.098 283.343L504.785 297.218V297.111ZM324.411 83.6511C323.771 83.9713 332.95 111.508 334.444 118.018C339.567 131.573 358.138 122.714 348.532 111.081L324.518 83.6511H324.411ZM455.796 331.692C456.543 331.371 449.392 303.301 448.431 296.791C444.269 282.916 425.164 290.387 433.81 302.768L455.903 331.585L455.796 331.692ZM488.135 102.862C487.495 102.329 463.801 120.58 458.037 124.208C446.617 133.814 462.093 146.835 469.991 134.134L488.135 102.862ZM292.819 309.598C293.353 310.132 318.434 293.589 324.411 290.28C336.472 281.528 322.063 267.44 313.205 279.607L292.926 309.598H292.819ZM255.464 155.801C255.143 156.441 281.079 171.49 286.736 175.439C300.077 182.376 307.868 164.232 292.606 161.35L255.464 155.801ZM526.238 260.823C526.558 260.182 501.69 243.426 496.353 239.157C483.546 231.259 474.474 248.869 489.522 252.711L526.238 260.823ZM440.213 76.2867C439.466 76.0732 424.631 101.262 420.682 106.705C420.689 108.443 421.24 110.135 422.258 111.544C423.276 112.953 424.709 114.009 426.357 114.562C428.005 115.115 429.785 115.139 431.447 114.629C433.108 114.12 434.569 113.103 435.624 111.721L440.213 76.2867ZM339.994 337.028C340.741 337.348 357.391 313.121 361.66 307.891C369.451 295.51 350.56 287.612 347.038 301.914L339.994 337.028ZM257.278 263.064C257.598 263.705 287.162 256.66 294.1 255.593C308.615 251.537 300.504 233.607 287.696 241.932L257.278 263.064ZM526.344 153.452C526.131 152.812 496.14 157.828 489.202 158.469C474.26 161.564 481.198 180.028 494.539 172.557L526.344 153.452Z" fill="#FFEC2D"/>
<path fill-rule="evenodd" clip-rule="evenodd" d="M415.878 70.3099C415.131 70.2031 405.098 97.4193 402.11 103.396C397.734 117.271 418.12 120.686 417.799 105.958L415.985 70.2031L415.878 70.3099ZM364.114 343.432C364.861 343.645 376.922 317.07 380.337 311.199C385.674 297.751 365.608 293.055 364.861 307.677L364.007 343.432H364.114ZM353.761 72.9781C353.014 73.1916 355.789 102.009 355.789 108.626C357.817 122.821 377.776 117.911 371.158 104.677L353.761 72.9781ZM426.338 341.831C427.085 341.724 426.338 312.8 426.871 306.183C425.911 291.775 405.525 295.403 411.289 309.065L426.231 341.831H426.338ZM302.318 96.8856C301.677 97.3125 315.872 122.821 318.54 128.905C326.225 141.392 342.768 129.652 331.135 119.726L302.318 96.8856ZM478.209 318.777C478.849 318.35 466.468 291.881 464.334 285.691C457.61 272.777 440.319 283.45 451.099 294.016L478.209 318.777ZM264.749 132.747C264.322 133.387 287.269 152.385 292.071 157.295C303.918 166.26 314.912 149.61 300.396 144.38L264.749 132.747ZM514.71 281.849C515.137 281.208 493.684 260.716 489.202 255.593C478.102 245.881 465.935 261.783 480.023 267.974L514.71 281.849ZM248.312 177.467C248.099 178.214 276.382 188.994 282.572 192.089C296.874 196.892 301.464 177.787 285.881 177.36L248.312 177.467ZM533.708 239.157C534.028 238.516 506.599 225.922 500.622 222.4C486.747 216.637 480.663 235.421 496.139 236.915L533.708 239.157ZM247.352 232.433C247.458 233.073 277.983 232.646 284.921 233.18C300.076 232.433 296.447 213.115 281.932 218.344L247.352 232.433ZM535.736 184.404C535.736 183.657 505.211 182.056 498.381 181.096C483.118 180.882 485.359 200.414 500.195 196.038L535.736 184.297V184.404ZM273.5 289.427C273.927 290.067 301.25 277.046 307.654 274.591C320.889 267.654 308.721 251.751 298.155 262.531L273.5 289.427ZM510.761 126.877C510.334 126.236 482.264 137.443 475.54 139.471C461.772 145.554 472.765 162.204 484.079 152.172L510.761 126.877ZM317.9 327.209C318.54 327.529 338.072 305.329 342.982 300.633C352.267 289.213 334.443 279.287 329.213 293.162L317.9 327.209ZM467.002 88.3472C466.468 87.9203 445.336 108.733 440.106 113.109C430.073 123.888 447.15 134.988 453.34 121.54L466.895 88.3472H467.002Z" fill="#FFEC2D"/>
<path fill-rule="evenodd" clip-rule="evenodd" d="M251.816 263.163C253.446 268.668 253.679 299.492 286.522 329.215C319.132 358.719 375.034 365.324 375.034 365.324C375.034 365.324 375.267 369.507 371.307 369.727C367.348 370.168 348.247 366.425 338.697 363.562C329.38 360.92 320.995 356.077 320.063 356.297C318.899 356.737 317.035 359.819 314.24 359.379C311.445 358.939 297.935 345.728 291.879 342.206C279.766 332.309 269.042 320.988 259.968 308.519C253.446 298.611 251.816 292.006 249.719 292.006C247.623 292.006 239.936 296.85 239.936 296.85C239.936 296.85 232.948 286.942 226.892 271.09C220.603 255.237 221.302 245.99 222.7 245.329C224.33 244.669 224.33 256.998 228.989 268.227C233.647 279.676 240.169 283.199 240.169 283.199C240.169 283.199 235.976 277.254 232.715 262.503C229.454 247.751 228.057 233.44 230.386 229.036C232.715 224.633 234.812 223.312 235.045 223.532C235.511 223.972 231.085 230.358 234.113 247.311C237.141 264.264 245.294 278.576 247.157 277.915C249.02 277.254 245.992 273.732 244.828 263.824C243.663 253.916 245.992 247.751 248.555 246.871C249.719 245.99 251.583 257.879 251.816 263.163ZM228.989 291.346C222.7 285.841 212.917 266.686 210.82 267.567C208.491 268.668 226.659 296.189 227.125 298.391C227.591 301.033 231.551 308.519 228.523 307.418C225.495 306.317 203.832 284.74 206.395 288.924C208.957 293.107 225.262 312.042 224.33 313.143C223.398 314.244 210.82 302.574 210.354 304.116C210.121 305.437 222.7 316.886 222.467 318.207C222.234 319.528 214.314 310.941 214.314 312.702C214.314 314.464 222.467 323.051 222.467 324.372C222.467 325.693 215.479 318.207 217.808 322.17C219.904 326.573 225.961 330.316 225.728 331.637C225.495 332.958 220.603 329.876 220.603 330.536C220.603 331.197 229.687 334.279 231.784 336.701C234.113 339.123 249.02 355.416 260.201 363.562C271.381 371.709 303.525 386.02 305.855 386.02C307.951 386.02 311.212 381.617 310.513 379.855C309.814 378.094 278.369 367.966 269.751 360.48C260.9 352.994 239.47 334.94 237.607 334.059C235.976 332.958 231.085 333.399 231.085 332.298C231.085 331.197 237.374 332.958 236.908 332.298C236.675 331.637 228.29 328.115 228.523 327.454C228.989 326.793 234.346 328.775 234.346 328.114C234.346 327.454 224.563 322.39 225.029 321.289C225.262 320.188 232.25 324.372 232.25 323.491C232.25 323.05 222.932 316.886 223.165 315.785C223.398 314.684 230.386 320.629 230.153 319.308C229.92 317.986 224.563 310.501 224.563 309.62C224.563 308.519 232.948 317.106 233.88 315.344C234.346 313.803 230.852 299.492 231.085 299.272C231.318 299.052 237.374 302.354 238.306 300.373C239.47 298.171 234.113 295.309 228.989 291.346ZM336.368 399.671C331.943 400.331 329.846 398.79 332.408 395.267C335.902 395.267 345.219 392.405 348.48 391.084C351.741 389.763 355.235 388.002 358.03 385.58C360.826 382.717 362.689 387.121 361.059 389.543C359.894 391.084 354.537 393.946 350.577 395.488C344.754 397.249 339.629 399.891 336.368 399.671ZM365.484 388.442C362.456 385.36 365.018 383.158 369.444 380.736C375.966 377.433 374.102 372.81 382.488 369.067C386.215 366.865 438.39 347.049 455.394 336.481C472.398 325.913 520.148 291.786 532.959 268.227C545.537 244.889 539.481 243.128 541.344 242.247C542.975 241.146 544.838 245.549 544.605 250.834C544.14 255.898 539.947 271.31 541.344 272.851C542.742 274.392 560.444 260.741 567.898 244.228C575.352 227.715 580.942 210.542 584.436 210.542C588.163 210.542 578.38 238.724 572.091 249.733C566.035 260.741 558.814 266.246 560.445 268.668C562.308 270.869 580.476 256.558 586.765 245.99C592.821 235.201 598.645 225.734 599.809 227.715C597.956 240.613 592.577 252.831 584.203 263.163C574.42 273.732 562.774 281.438 564.637 282.979C566.268 284.74 579.545 286.502 593.287 277.695C607.263 268.668 608.66 255.677 610.291 256.338C612.154 256.999 608.66 274.833 595.384 285.841C582.107 296.85 564.637 297.951 565.103 300.373C566.035 302.574 603.07 290.245 602.371 293.107C601.673 295.749 554.388 313.363 553.922 315.124C553.922 316.445 562.075 316.886 574.886 314.023C587.464 311.381 599.576 301.914 601.207 304.116C601.673 307.198 592.123 314.684 577.681 318.207C563.007 321.729 555.786 326.353 555.32 327.454C555.087 328.555 581.408 324.371 581.408 325.693C581.408 327.014 546.935 333.399 546.702 335.16C546.236 336.701 579.312 328.775 578.846 330.757C577.914 332.298 533.891 344.628 534.357 345.288C534.589 346.169 571.159 337.802 570.46 339.123C569.529 340.664 508.967 356.737 508.502 357.838C508.036 358.719 562.075 346.389 561.609 347.49C561.143 348.591 533.658 354.976 533.658 355.636C533.658 356.297 555.786 352.334 555.32 353.434C555.087 354.315 499.417 367.746 498.253 369.727C497.088 371.929 527.136 364.223 526.67 368.186C526.204 372.149 462.149 392.405 461.916 388.662C461.45 384.919 500.815 375.452 500.582 374.351C500.116 373.25 477.988 376.553 477.522 374.571C477.289 372.369 492.197 367.966 491.032 367.085C489.867 365.984 478.687 370.168 479.619 367.746C480.783 365.324 501.98 356.076 501.514 355.416C501.281 354.755 493.827 357.618 494.526 355.416C495.458 352.994 540.413 340.664 539.714 339.123C539.015 337.802 518.983 342.206 517.12 342.646C516.421 341.325 545.071 331.197 544.605 329.436C543.674 327.894 529.232 335.38 528.3 333.399C527.835 331.197 553.69 321.729 552.059 320.188C550.429 318.647 538.782 324.151 537.152 322.61C535.521 321.069 561.609 304.116 557.649 303.675C553.69 303.455 548.798 308.959 548.332 305.437C548.798 301.033 568.597 293.767 564.171 290.245C557.183 288.263 533.658 291.786 523.875 297.29C514.092 302.795 481.482 333.399 473.562 338.242C465.643 342.866 438.623 353.655 433.499 355.856C425.579 358.498 424.182 362.461 416.029 366.425C401.355 370.168 401.588 374.351 394.6 376.773C392.038 377.433 365.717 389.323 365.484 388.442ZM328.682 403.854C324.256 406.056 320.296 411.34 322.858 413.542C324.256 416.184 328.682 407.597 332.176 408.037L350.81 408.918C360.826 409.579 365.717 406.937 371.307 407.377C376.898 407.817 389.243 404.515 395.066 404.515C400.889 404.515 402.054 405.175 402.52 402.753C403.218 400.551 384.351 402.093 375.966 401.873C367.581 401.432 357.099 403.414 350.81 403.414C344.987 403.194 334.971 401.432 328.682 403.854Z" fill="#FFEC2D"/>
<path d="M356.632 401.212C356.632 399.388 354.86 397.909 352.673 397.909C350.486 397.909 348.713 399.388 348.713 401.212C348.713 403.036 350.486 404.514 352.673 404.514C354.86 404.514 356.632 403.036 356.632 401.212Z" fill="#FFEC2D"/>
<path fill-rule="evenodd" clip-rule="evenodd" d="M449.571 394.827C453.531 394.166 464.246 397.689 471.699 399.23C485.209 404.294 510.365 401.872 510.365 404.294C510.365 406.716 508.735 409.578 502.912 410.019C497.088 410.459 482.414 407.817 482.88 407.817C483.346 407.817 494.526 412.881 491.265 414.202C488.004 415.523 478.454 411.34 476.824 412.44C475.193 413.541 485.675 415.523 483.812 416.183C482.414 416.844 475.193 415.303 472.864 415.523C470.535 415.963 474.727 418.385 471.932 419.266C469.137 420.367 464.479 417.945 462.615 418.605C460.519 419.266 466.808 423.009 464.013 423.449C461.218 423.889 454.696 421.688 450.969 421.247C447.242 421.247 454.463 424.77 452.133 425.211C449.804 425.431 443.282 422.348 441.652 422.348C440.021 422.348 441.652 426.752 439.322 426.752C436.993 426.752 434.198 423.009 432.8 423.009C431.403 423.009 432.8 427.412 430.471 427.412C428.142 427.412 427.21 422.789 425.347 423.009C423.017 423.449 425.347 428.953 422.086 428.513C419.058 428.293 418.592 422.789 416.03 423.009C413.7 423.449 416.496 428.513 414.166 428.513C411.837 428.513 411.371 423.449 409.042 423.009C406.713 422.789 407.644 427.853 406.247 427.853C404.849 427.853 403.452 423.009 402.52 423.009C401.821 423.009 402.52 427.853 399.725 427.412C396.93 426.972 396.93 422.128 396.231 422.348C395.299 422.789 395.299 426.311 393.436 426.311C391.572 426.311 391.339 422.789 390.641 423.229C389.709 423.449 386.914 427.853 385.05 427.192C382.954 426.532 385.516 423.009 384.584 423.009C383.653 423.009 381.323 425.431 379.926 425.211C378.528 424.99 379.926 422.128 379.46 422.128C378.994 422.128 375.5 423.889 373.87 423.889C372.239 423.889 367.814 426.091 366.649 424.11C365.484 421.908 369.677 421.908 370.609 419.926C371.308 417.945 368.28 412 371.54 410.019C374.569 407.817 384.584 412.881 399.492 409.358C426.511 402.533 447.475 394.606 449.571 394.827Z" fill="#FFEC2D"/>
</g>
<defs>
<clipPath id="clip0_703_286">
<rect width="720" height="480" fill="white"/>
</clipPath>
</defs>
</svg>
