<svg width="720" height="480" viewBox="0 0 720 480" fill="none" xmlns="http://www.w3.org/2000/svg">
<path fill-rule="evenodd" clip-rule="evenodd" d="M0 0H720V480H0V0Z" fill="#00843D"/>
<path fill-rule="evenodd" clip-rule="evenodd" d="M246.844 128.906C273 141.469 304.125 128.906 315.375 111.469C327 95.1562 328.406 67.875 308.438 42.8438C339.375 68.5312 346.312 97.6875 330.844 121.688C310.219 149.156 264.656 148.312 246.844 128.906Z" fill="white"/>
<path fill-rule="evenodd" clip-rule="evenodd" d="M293.25 65.0625L298.5 65.1562L294.375 68.4375L295.969 73.6875L291.562 70.5938L287.344 73.6875L288.75 68.5312L284.531 65.25L289.781 65.1562L291.562 60L293.25 65.0625ZM267.281 97.6875H272.531L268.406 101.062L270 106.219L265.594 103.125L261.281 106.312L262.781 101.062L258.562 97.875L263.812 97.6875L265.5 92.5312L267.281 97.6875ZM268.969 72H274.312L270.094 75.375L271.688 80.5312L267.375 77.4375L263.062 80.625L264.562 75.375L260.344 72.0938L265.594 72L267.281 66.8438L268.969 72ZM268.969 46.2188H274.312L270 49.6875L271.594 54.8438L267.281 51.8438L262.969 54.9375L264.469 49.7812L260.25 46.5L265.5 46.4062L267.188 41.25L268.969 46.2188ZM240.188 78.8438H245.438L241.219 82.2188L242.812 87.375L238.5 84.2812L234.188 87.4688L235.688 82.2188L231.469 79.0312L236.719 78.8438L238.406 73.6875L240.188 78.8438Z" fill="white"/>
<path fill-rule="evenodd" clip-rule="evenodd" d="M44.5312 0H198.844V480H44.5312V0Z" fill="#CA3745"/>
<path fill-rule="evenodd" clip-rule="evenodd" d="M44.5312 125.156V121.688L50.9062 113.156L49.6875 111.375L53.4375 106.312L52.2188 104.531L49.6875 108L48.375 106.312L57.375 94.3125L58.6875 96L57.375 97.6875L60 101.25L66.375 92.625L59.9062 84.2812L57.375 87.4688L58.6875 89.25L57.375 90.9375L48.375 78.9375L49.6875 77.25L52.2188 80.625L53.5312 78.9375L49.6875 73.7812L50.9062 72.0938L44.5312 63.4687V60L53.5312 72L52.2188 73.6875L56.0625 78.8438L53.5312 82.3125L56.0625 85.6875L60 80.625L69.0938 92.8125L60 104.625L56.25 99.4688L53.625 102.938L56.1562 106.406L52.4062 111.469L53.625 113.25L44.625 125.25L44.5312 125.156Z" fill="#FAAE29"/>
<path fill-rule="evenodd" clip-rule="evenodd" d="M44.5312 82.3125L45.8438 85.6875V90.9375H49.6875L52.3125 92.625L49.6875 94.4062H45.9375V99.4688L44.625 102.938V82.3125H44.5312Z" fill="#FAAE29"/>
<path fill-rule="evenodd" clip-rule="evenodd" d="M44.5312 207.469V204L50.9062 195.469L49.6875 193.688L53.4375 188.531L52.2188 186.844L49.6875 190.312L48.375 188.531L57.375 176.531L58.6875 178.312L57.375 180L60 183.469L66.375 174.844L59.9062 166.5L57.375 169.688L58.6875 171.469L57.375 173.156L48.375 161.156L49.6875 159.375L52.2188 162.75L53.5312 161.062L49.6875 155.906L50.9062 154.219L44.5312 145.594V142.219L53.5312 154.219L52.2188 155.906L56.0625 161.062L53.5312 164.438L56.0625 167.906L59.9062 162.75L69 174.938L59.9062 186.75L56.1562 181.594L53.5312 185.062L56.0625 188.438L52.3125 193.594L53.5312 195.375L44.5312 207.375V207.469Z" fill="#FAAE29"/>
<path fill-rule="evenodd" clip-rule="evenodd" d="M44.5312 164.531L45.8438 168V173.156H49.6875L52.3125 174.844L49.6875 176.531H45.9375V181.688L44.625 185.156V164.531H44.5312Z" fill="#FAAE29"/>
<path fill-rule="evenodd" clip-rule="evenodd" d="M44.5312 289.688V286.312L50.9062 277.688L49.6875 276L53.4375 270.844L52.2188 269.156L49.6875 272.531L48.375 270.844L57.375 258.844L58.6875 260.531L57.375 262.312L60 265.781L66.375 257.156L59.9062 248.719L57.375 252L58.6875 253.688L57.375 255.375L48.375 243.375L49.6875 241.687L52.2188 245.156L53.5312 243.375L49.6875 238.312L50.9062 236.531L44.5312 228V224.531L53.5312 236.531L52.2188 238.312L56.0625 243.375L53.5312 246.844L56.0625 250.312L60 245.156L69 257.344L59.9062 269.156L56.1562 264L53.5312 267.375L56.0625 270.844L52.3125 276L53.5312 277.688L44.5312 289.688Z" fill="#FAAE29"/>
<path fill-rule="evenodd" clip-rule="evenodd" d="M44.5312 246.844L45.9375 250.312V255.469H49.6875L52.3125 257.156L49.6875 258.75H45.9375V263.906L44.625 267.375V246.75L44.5312 246.844Z" fill="#FAAE29"/>
<path fill-rule="evenodd" clip-rule="evenodd" d="M44.5312 366.844V363.375L50.9062 354.844L49.6875 353.156L53.4375 348L52.2188 346.312L49.6875 349.688L48.375 348L57.375 336L58.6875 337.688L57.375 339.375L60 342.844L66.375 334.312L59.9062 325.875L57.375 329.156L58.6875 330.844L57.375 332.531L48.375 320.531L49.6875 318.844L52.2188 322.312L53.5312 320.531L49.6875 315.375L50.9062 313.688L44.5312 305.156V301.688L53.5312 313.688L52.2188 315.375L56.0625 320.531L53.5312 324L56.0625 327.375L60 322.312L69 334.5L59.9062 346.312L56.1562 341.156L53.5312 344.531L56.0625 348L52.3125 353.156L53.5312 354.844L44.5312 366.844Z" fill="#FAAE29"/>
<path fill-rule="evenodd" clip-rule="evenodd" d="M44.5312 324L45.8438 327.375V332.531H49.6875L52.3125 334.312L49.6875 336H45.9375V341.156L44.625 344.531V323.906L44.5312 324Z" fill="#FAAE29"/>
<path fill-rule="evenodd" clip-rule="evenodd" d="M198.844 125.156V121.688L192.469 113.156L193.781 111.375L189.938 106.312L191.156 104.531L193.781 108L195.094 106.312L186.094 94.3125L184.781 96L186.094 97.6875L183.375 101.156L177.094 92.5312L183.469 84.1875L186.094 87.375L184.781 89.1562L186 90.8438L195 78.8438L193.781 77.1562L191.156 80.5312L189.938 78.8438L193.688 73.6875L192.469 72L198.844 63.375V60L189.938 72L191.156 73.6875L187.406 78.8438L189.938 82.3125L187.312 85.6875L183.469 80.5312L174.375 92.7188L183.469 104.531L187.312 99.375L189.938 102.844L187.312 106.312L191.156 111.375L189.938 113.156L198.844 125.156Z" fill="#FAAE29"/>
<path fill-rule="evenodd" clip-rule="evenodd" d="M198.844 82.3125L197.531 85.6875V90.9375H193.781L191.156 92.625L193.688 94.4062H197.531V99.4688L198.844 102.938V82.3125Z" fill="#FAAE29"/>
<path fill-rule="evenodd" clip-rule="evenodd" d="M199.312 207.469V204L192.938 195.469L194.156 193.688L190.406 188.531L191.625 186.844L194.156 190.312L195.469 188.531L186.469 176.531L185.156 178.312L186.469 180L183.844 183.469L177.469 174.844L183.938 166.5L186.469 169.688L185.156 171.375L186.469 173.156L195.469 161.156L194.156 159.375L191.625 162.844L190.312 161.156L194.156 156L192.938 154.312L199.312 145.687V142.312L190.312 154.312L191.625 156L187.781 161.156L190.312 164.531L187.781 168L183.938 162.844L174.844 175.031L183.938 186.844L187.688 181.688L190.312 185.156L187.781 188.531L191.531 193.688L190.312 195.375L199.312 207.375V207.469Z" fill="#FAAE29"/>
<path fill-rule="evenodd" clip-rule="evenodd" d="M199.313 164.531L198 168V173.156H194.062L191.438 174.844L194.062 176.531H197.812V181.688L199.219 185.156V164.531H199.313Z" fill="#FAAE29"/>
<path fill-rule="evenodd" clip-rule="evenodd" d="M198.844 289.688V286.312L192.469 277.688L193.781 276L189.938 270.844L191.156 269.156L193.781 272.531L195.094 270.844L186.094 258.844L184.781 260.531L186.094 262.312L183.375 265.781L177.094 257.156L183.469 248.719L186.094 252L184.781 253.688L186 255.375L195 243.375L193.781 241.687L191.156 245.156L189.938 243.375L193.688 238.312L192.469 236.531L198.844 228V224.531L189.938 236.531L191.156 238.312L187.406 243.375L189.938 246.844L187.312 250.312L183.469 245.156L174.375 257.344L183.469 269.156L187.312 264L189.938 267.375L187.312 270.844L191.156 276L189.938 277.688L198.75 289.688H198.844Z" fill="#FAAE29"/>
<path fill-rule="evenodd" clip-rule="evenodd" d="M198.844 246.844L197.531 250.312V255.469H193.781L191.156 257.156L193.688 258.844H197.531V264L198.844 267.469V246.844Z" fill="#FAAE29"/>
<path fill-rule="evenodd" clip-rule="evenodd" d="M198.844 363.375L192.469 354.844L193.781 353.156L189.938 348L191.156 346.312L193.781 349.688L195.094 348L186.094 336L184.781 337.688L186.094 339.375L183.375 342.844L177.094 334.312L183.469 325.875L186.094 329.156L184.781 330.844L186 332.531L195 320.625L193.781 318.938L191.156 322.406L189.938 320.625L193.688 315.469L192.469 313.781L198.844 305.25V301.781L189.938 313.781L191.156 315.469L187.406 320.625L189.938 324.094L187.312 327.469L183.469 322.406L174.375 334.594L183.469 346.406L187.312 341.25L189.938 344.625L187.312 348.094L191.156 353.25L189.938 354.938L198.844 366.938V363.375Z" fill="#FAAE29"/>
<path fill-rule="evenodd" clip-rule="evenodd" d="M198.844 324L197.531 327.375V332.531H193.781L191.156 334.312L193.688 336H197.531V341.156L198.844 344.531V323.906V324Z" fill="#FAAE29"/>
<path fill-rule="evenodd" clip-rule="evenodd" d="M44.5312 29.1562L50.9062 20.5312L49.6875 18.8438L53.4375 13.6875L52.2188 12L49.6875 15.4688L48.375 13.6875L57.375 1.6875L58.6875 3.46875L57.375 5.15625L60 8.625L66.375 0H69L60 12L56.0625 6.84375L53.5312 10.3125L56.0625 13.6875L52.3125 18.8438L53.4375 20.625L44.5312 32.625V29.1562ZM44.5312 0H52.3125L49.6875 1.6875H45.9375V6.84375L44.4375 10.3125V0H44.5312ZM198.844 32.5312V29.1562L192.469 20.5312L193.781 18.8438L189.938 13.6875L191.156 12L193.781 15.4688L195 13.6875L186 1.6875L184.781 3.46875L186 5.15625L183.375 8.625L177 0H174.375L183.469 12L187.312 6.84375L189.938 10.3125L187.312 13.6875L191.156 18.8438L189.938 20.5312L198.844 32.5312ZM198.844 0H191.156L193.688 1.6875H197.531V6.84375L198.844 10.3125L198.844 0ZM108.844 473.156C108.844 473.156 114.469 463.406 128.344 460.5C142.312 457.5 144.75 466.969 152.719 466.969C160.688 466.969 173.344 460.406 173.344 460.406C173.344 460.406 160.688 472.875 150.844 472.594C141.188 472.312 137.906 466.031 127.875 466.969C117.937 467.906 108.844 473.438 108.844 473.156Z" fill="#FAAE29"/>
<path fill-rule="evenodd" clip-rule="evenodd" d="M135.75 473.158C135.75 473.158 130.219 463.408 116.344 460.501C102.281 457.501 99.9375 466.97 91.9688 466.97C84 466.97 71.3438 460.408 71.3438 460.408C71.3438 460.408 84 472.876 93.75 472.595C103.5 472.314 106.875 466.033 116.719 466.97C126.75 467.908 135.75 473.439 135.75 473.158Z" fill="#FAAE29"/>
<path fill-rule="evenodd" clip-rule="evenodd" d="M90.188 457.031C88.9692 454.5 85.8755 443.25 87.4692 441.844C90.0005 440.906 96.563 452.437 95.9067 462.656C91.5942 465 77.1567 461.719 77.2505 458.719C78.2817 454.5 86.5317 455.906 90.188 457.031Z" fill="#FAAE29"/>
<path fill-rule="evenodd" clip-rule="evenodd" d="M81.3754 447.188C80.6254 444.375 79.3128 432.563 81.1878 431.625C83.7191 431.438 88.3129 444.469 86.1566 454.313C81.5629 455.438 67.8753 448.219 68.5316 445.313C70.2191 441.563 77.9066 445.125 81.3754 447.188Z" fill="#FAAE29"/>
<path fill-rule="evenodd" clip-rule="evenodd" d="M74.2496 436.312C73.6871 433.312 73.4996 421.312 75.3746 420.75C77.9058 420.938 81.3746 434.625 78.3746 444.094C73.6871 444.469 60.7496 435.094 61.6871 432.375C63.5621 428.813 71.0621 433.594 74.2496 436.312Z" fill="#FAAE29"/>
<path fill-rule="evenodd" clip-rule="evenodd" d="M68.6253 424.688C68.4378 421.594 69.5628 409.688 71.5316 409.5C74.0628 410.156 75.8441 424.406 71.7191 433.125C67.1253 432.562 55.4066 420.656 56.7191 418.125C58.9691 415.031 65.8128 421.312 68.6253 424.688Z" fill="#FAAE29"/>
<path fill-rule="evenodd" clip-rule="evenodd" d="M64.6875 412.406C64.875 409.312 67.3126 397.875 69.2813 397.968C71.6251 399.187 71.9063 413.531 66.9376 421.406C62.4376 419.906 52.0313 405.937 53.5313 403.593C56.25 400.968 62.25 408.562 64.7813 412.406H64.6875Z" fill="#FAAE29"/>
<path fill-rule="evenodd" clip-rule="evenodd" d="M65.8125 398.438C65.5313 410.625 63.2813 410.812 59.25 401.812C57.375 398.344 57.1875 384.281 58.7813 383.719C61.125 383.719 65.7188 393.75 65.8125 398.438Z" fill="#FAAE29"/>
<path fill-rule="evenodd" clip-rule="evenodd" d="M153.75 458.438C154.969 455.813 158.063 444.563 156.469 443.157C153.938 442.219 147.469 453.657 148.032 463.969C152.344 466.313 166.875 463.032 166.688 460.032C165.657 455.813 157.5 457.219 153.75 458.344V458.438Z" fill="#FAAE29"/>
<path fill-rule="evenodd" clip-rule="evenodd" d="M162.563 448.5C163.407 445.688 164.625 433.875 162.844 432.938C160.313 432.75 155.625 445.688 157.875 455.625C162.375 456.75 176.157 449.531 175.407 446.625C173.813 442.781 166.032 446.438 162.563 448.5Z" fill="#FAAE29"/>
<path fill-rule="evenodd" clip-rule="evenodd" d="M169.688 437.625C170.25 434.625 170.438 422.625 168.563 422.062C166.032 422.25 162.563 435.844 165.657 445.312C170.344 445.688 183.282 436.406 182.344 433.594C180.282 430.031 172.969 434.906 169.688 437.625Z" fill="#FAAE29"/>
<path fill-rule="evenodd" clip-rule="evenodd" d="M175.312 425.906C175.5 422.906 174.375 411 172.406 410.812C169.875 411.469 168.094 425.719 172.219 434.437C176.906 433.875 188.531 421.969 187.312 419.437C184.969 416.25 178.219 422.625 175.312 425.906Z" fill="#FAAE29"/>
<path fill-rule="evenodd" clip-rule="evenodd" d="M179.251 413.625C179.157 410.625 176.626 399.094 174.751 399.282C172.313 400.407 172.032 414.844 177.094 422.719C181.594 421.219 191.907 407.25 190.407 404.907C187.688 402.282 181.688 409.875 179.157 413.625H179.251Z" fill="#FAAE29"/>
<path fill-rule="evenodd" clip-rule="evenodd" d="M178.125 399.75C178.5 411.937 180.656 412.031 184.688 403.031C186.562 399.656 186.75 385.5 185.156 385.031C182.812 385.031 178.219 395.062 178.125 399.75Z" fill="#FAAE29"/>
<path fill-rule="evenodd" clip-rule="evenodd" d="M174.929 308.359H167.255V313.506H159.861V318.654H130.284L125.261 323.948L127.772 326.596H140.189L142.561 323.948H130.284L132.655 321.301H149.955L142.561 329.096H125.4L120.517 326.596L115.495 329.096H98.1947L90.8003 321.301H108.1L110.612 323.948H98.1947L100.706 326.596H113.123L115.495 323.948L110.612 318.654H83.4059V313.506H76.0116V308.359H68.6172V284.827H76.0116V279.679H83.4059V274.385H110.612L115.495 269.237L113.123 266.59H100.706L98.1947 269.237H110.612L108.1 271.737H90.8003L98.1947 263.942H115.634L120.657 266.59L125.54 263.942H142.84L150.234 271.737H132.934L130.563 269.237H142.84L140.329 266.59H128.051L125.4 269.237L130.423 274.385H160.001V279.679H167.395V284.827H174.929V308.359Z" fill="#CA3745"/>
<path fill-rule="evenodd" clip-rule="evenodd" d="M98.1642 263.871H115.652L120.657 266.509L125.522 263.871H142.871L150.401 271.809H132.904L130.396 269.166H142.674L140.298 266.662H128.081L125.501 269.238L130.454 274.313H160.072V279.608H167.467V284.756H175.001V308.359L174.929 308.359L174.929 308.431H167.327V313.578H159.933V318.726H130.315L125.36 323.949L127.803 326.524H140.158L142.401 324.02H130.124L132.624 321.23H150.122L142.592 329.168H125.383L120.517 326.676L115.512 329.168H98.1642L90.634 321.23H108.131L110.779 324.02H98.3617L100.737 326.524H113.091L115.398 323.949L110.581 318.726H83.3347V313.578H75.9403V308.431H68.5459V284.756H75.9403V279.608H83.3347V274.313H110.581L115.398 269.236L113.091 266.662H100.737L98.3617 269.166H110.785L108.13 271.809H90.634L98.1642 263.871ZM174.858 308.287V284.899H167.324V279.751H159.929V274.457H130.393L125.3 269.237L128.022 266.518H140.36L143.007 269.309H130.73L132.965 271.666H150.068L142.81 264.014H125.558L120.658 266.671L115.617 264.014H98.2258L90.9673 271.666H108.071L110.439 269.309H98.0284L100.676 266.518H113.155L115.592 269.239L110.643 274.457H83.4779V279.751H76.0835V284.899H68.6891V308.287H76.0835V313.435H83.4779V318.583H110.643L115.592 323.948L113.155 326.668H100.676L98.0284 323.877H110.445L108.07 321.373H90.9673L98.2258 329.025H115.478L120.518 326.516L125.418 329.025H142.531L149.789 321.373H132.688L130.444 323.877H142.722L140.222 326.668H127.742L125.163 323.949L130.253 318.583H159.79V313.435H167.184V308.287H174.858Z" fill="black"/>
<path fill-rule="evenodd" clip-rule="evenodd" d="M71.0947 287.567V305.804H78.489V310.951H85.8833V316.099H110.647L120.553 323.967L130.388 316.172H157.594V311.025L164.988 310.951V305.804H172.522V287.493H165.058V282.345H157.664V277.051H130.458L120.622 269.256L110.717 277.051H85.953V282.345H78.5588V287.493H71.1645L71.0947 287.567Z" fill="#00843D"/>
<path fill-rule="evenodd" clip-rule="evenodd" d="M120.624 268.617L130.633 276.55H158.165V281.844H165.56V286.992H173.024V306.305H165.49V311.448L158.096 311.521V316.674H130.563L120.553 324.607L110.473 316.6H85.3823V311.453H77.988V306.305H70.5938V287.367L70.9494 286.992H78.0578V281.844H85.4521V276.55H110.544L120.624 268.617ZM120.622 269.895L110.891 277.552H86.4548V282.847H79.0605V287.995H71.5965V305.302H78.9907V310.45H86.385V315.598H110.822L120.553 323.327L130.214 315.671H157.093V310.529L164.487 310.455V305.302H172.021V287.995H164.557V282.847H157.163V277.552H130.284L120.622 269.895Z" fill="#FAAE29"/>
<path fill-rule="evenodd" clip-rule="evenodd" d="M105.667 279.604L90.8564 292.65V279.604H105.667ZM135.287 279.604L150.191 292.65V279.604H135.287ZM105.667 313.525L90.8564 300.478V313.525H105.667ZM135.287 313.525L150.191 300.478V313.525H135.287ZM140.255 287.432L135.287 292.65H145.223L140.255 287.432ZM100.699 287.432L95.8245 292.65H105.667L100.699 287.432ZM100.699 305.697L95.8245 300.478H105.667L100.699 305.697ZM140.255 305.697L135.287 300.478H145.223L140.255 305.697Z" fill="#CA3745"/>
<path fill-rule="evenodd" clip-rule="evenodd" d="M120.478 318.744L115.51 313.525H125.446L120.478 318.744ZM120.478 292.65L115.51 287.432H125.446L120.478 292.65ZM120.478 274.385L115.51 279.722H125.446L120.478 274.385ZM120.478 300.478L115.51 305.697H125.446L120.478 300.478Z" fill="#FAAE29"/>
<path fill-rule="evenodd" clip-rule="evenodd" d="M135.342 292.715H145.317V295.288H135.411L135.342 292.715Z" fill="#FAAE29"/>
<path fill-rule="evenodd" clip-rule="evenodd" d="M135.305 292.679H145.353V295.324H135.377L135.305 292.679ZM135.378 292.75L135.446 295.253H145.281V292.75H135.378Z" fill="black"/>
<path fill-rule="evenodd" clip-rule="evenodd" d="M98.3008 295.288H103.184V297.935H98.3008V295.288ZM137.853 295.288H142.736V297.935H137.853V295.288Z" fill="#CC0000"/>
<path fill-rule="evenodd" clip-rule="evenodd" d="M98.2646 295.253H103.219V297.972H98.2646V295.253ZM98.3363 295.325V297.9H103.148V295.325H98.3363ZM137.817 295.253H142.772V297.972H137.817V295.253ZM137.889 295.325V297.9H142.7V295.325H137.889Z" fill="black"/>
<path fill-rule="evenodd" clip-rule="evenodd" d="M115.601 279.698H125.436V282.272H115.601V279.698ZM115.601 284.846H125.436V287.493H115.601V284.846Z" fill="#990000"/>
<path fill-rule="evenodd" clip-rule="evenodd" d="M115.564 279.663H125.472V282.309H115.564V279.663ZM115.636 279.735V282.237H125.4V279.735H115.636ZM115.564 284.811H125.472V287.53H115.564V284.811ZM115.636 284.882V287.458H125.4V284.882H115.636Z" fill="black"/>
<path fill-rule="evenodd" clip-rule="evenodd" d="M113.089 282.272H127.947V284.92H113.089V282.272ZM115.6 305.804H125.436V308.304H115.6V305.804ZM115.6 310.952H125.436V313.526H115.6V310.952ZM113.089 308.378H127.947V310.952H113.089V308.378Z" fill="#990000"/>
<path fill-rule="evenodd" clip-rule="evenodd" d="M113.054 282.236H127.984V284.955H113.054V282.236ZM113.125 282.308V284.884H127.912V282.308H113.125ZM115.565 305.768H125.472V308.34H115.565V305.768ZM115.637 305.84V308.268H125.401V305.84H115.637ZM113.054 308.342H127.984V310.987H125.472V313.561H115.565V310.987H113.054V308.342ZM127.912 310.916V308.414H113.125V310.916H127.912ZM115.637 310.987V313.49H125.401V310.987H115.637Z" fill="black"/>
<path fill-rule="evenodd" clip-rule="evenodd" d="M135.342 297.936H145.317V300.51H135.411L135.342 297.936ZM95.7893 292.715H105.695V295.288H95.7893V292.715ZM95.7893 297.862H105.695V300.51H95.7893V297.862ZM93.3478 295.288H98.2308V297.936H93.3478V295.288ZM103.253 295.288H108.136V297.936H103.253V295.288ZM132.9 295.288H137.783V297.936H132.9V295.288ZM142.806 295.288H147.689V297.936H142.806V295.288Z" fill="#FAAE29"/>
<path fill-rule="evenodd" clip-rule="evenodd" d="M95.753 292.679H105.73V295.253H108.172V297.971H105.73V300.545H95.753V297.971H93.3115V295.253H95.753V292.679ZM95.8247 295.253H105.659V292.75H95.8247V295.253ZM103.217 295.324H98.2662V297.826H103.217V295.324ZM103.217 297.898H98.2662V297.971H95.8247V300.474H105.659V297.971H103.217V297.898ZM105.73 297.9V297.826H103.289V295.324H108.1V297.9H105.73ZM105.659 297.9H103.289V297.898H105.659V297.9ZM95.8247 297.9H98.1945V297.898H95.8247V297.9ZM98.1945 297.826V295.324H93.3831V297.9H95.753V297.826H98.1945ZM132.864 295.253H137.819V297.9H142.769V295.253H147.724V297.971H145.352V300.545H135.376L135.306 297.971H132.864V295.253ZM137.747 297.9V295.324H132.936V297.9H137.747ZM135.378 297.971L135.446 300.474H145.281V297.971H135.378ZM147.652 297.9V295.324H142.841V297.9H147.652Z" fill="black"/>
<path d="M114.451 310.203C114.798 310.203 115.079 309.906 115.079 309.541C115.079 309.175 114.798 308.879 114.451 308.879C114.104 308.879 113.823 309.175 113.823 309.541C113.823 309.906 114.104 310.203 114.451 310.203Z" fill="white"/>
<path d="M120.544 310.203C120.891 310.203 121.172 309.906 121.172 309.541C121.172 309.175 120.891 308.879 120.544 308.879C120.197 308.879 119.916 309.175 119.916 309.541C119.916 309.906 120.197 310.203 120.544 310.203Z" fill="white"/>
<path d="M126.731 310.203C127.078 310.203 127.359 309.906 127.359 309.541C127.359 309.175 127.078 308.879 126.731 308.879C126.385 308.879 126.104 309.175 126.104 309.541C126.104 309.906 126.385 310.203 126.731 310.203Z" fill="white"/>
<path d="M116.889 307.711C117.235 307.711 117.516 307.415 117.516 307.05C117.516 306.684 117.235 306.388 116.889 306.388C116.542 306.388 116.261 306.684 116.261 307.05C116.261 307.415 116.542 307.711 116.889 307.711Z" fill="white"/>
<path d="M124.2 307.711C124.547 307.711 124.828 307.415 124.828 307.05C124.828 306.684 124.547 306.388 124.2 306.388C123.853 306.388 123.572 306.684 123.572 307.05C123.572 307.415 123.853 307.711 124.2 307.711Z" fill="white"/>
<path d="M116.795 312.812C117.142 312.812 117.423 312.516 117.423 312.15C117.423 311.785 117.142 311.488 116.795 311.488C116.448 311.488 116.167 311.785 116.167 312.15C116.167 312.516 116.448 312.812 116.795 312.812Z" fill="white"/>
<path d="M124.2 312.93C124.547 312.93 124.828 312.634 124.828 312.268C124.828 311.903 124.547 311.606 124.2 311.606C123.853 311.606 123.572 311.903 123.572 312.268C123.572 312.634 123.853 312.93 124.2 312.93Z" fill="white"/>
<path d="M134.042 297.156C134.389 297.156 134.67 296.859 134.67 296.494C134.67 296.128 134.389 295.832 134.042 295.832C133.695 295.832 133.414 296.128 133.414 296.494C133.414 296.859 133.695 297.156 134.042 297.156Z" fill="white"/>
<path d="M140.228 297.156C140.575 297.156 140.856 296.859 140.856 296.494C140.856 296.128 140.575 295.832 140.228 295.832C139.882 295.832 139.601 296.128 139.601 296.494C139.601 296.859 139.882 297.156 140.228 297.156Z" fill="white"/>
<path d="M146.415 297.156C146.762 297.156 147.043 296.859 147.043 296.494C147.043 296.128 146.762 295.832 146.415 295.832C146.068 295.832 145.787 296.128 145.787 296.494C145.787 296.859 146.068 297.156 146.415 297.156Z" fill="white"/>
<path d="M136.573 294.546C136.92 294.546 137.201 294.25 137.201 293.884C137.201 293.519 136.92 293.223 136.573 293.223C136.226 293.223 135.945 293.519 135.945 293.884C135.945 294.25 136.226 294.546 136.573 294.546Z" fill="white"/>
<path d="M143.885 294.546C144.231 294.546 144.512 294.25 144.512 293.884C144.512 293.519 144.231 293.223 143.885 293.223C143.538 293.223 143.257 293.519 143.257 293.884C143.257 294.25 143.538 294.546 143.885 294.546Z" fill="white"/>
<path d="M136.479 299.646C136.826 299.646 137.107 299.35 137.107 298.984C137.107 298.619 136.826 298.322 136.479 298.322C136.133 298.322 135.852 298.619 135.852 298.984C135.852 299.35 136.133 299.646 136.479 299.646Z" fill="white"/>
<path d="M143.885 299.765C144.231 299.765 144.512 299.469 144.512 299.103C144.512 298.738 144.231 298.441 143.885 298.441C143.538 298.441 143.257 298.738 143.257 299.103C143.257 299.469 143.538 299.765 143.885 299.765Z" fill="white"/>
<path d="M114.357 284.227C114.704 284.227 114.985 283.931 114.985 283.565C114.985 283.2 114.704 282.903 114.357 282.903C114.011 282.903 113.729 283.2 113.729 283.565C113.729 283.931 114.011 284.227 114.357 284.227Z" fill="white"/>
<path d="M120.544 284.227C120.891 284.227 121.172 283.931 121.172 283.565C121.172 283.2 120.891 282.903 120.544 282.903C120.197 282.903 119.916 283.2 119.916 283.565C119.916 283.931 120.197 284.227 120.544 284.227Z" fill="white"/>
<path d="M126.731 284.109C127.078 284.109 127.359 283.812 127.359 283.447C127.359 283.081 127.078 282.785 126.731 282.785C126.385 282.785 126.104 283.081 126.104 283.447C126.104 283.812 126.385 284.109 126.731 284.109Z" fill="white"/>
<path d="M116.795 281.618C117.142 281.618 117.423 281.321 117.423 280.956C117.423 280.59 117.142 280.294 116.795 280.294C116.448 280.294 116.167 280.59 116.167 280.956C116.167 281.321 116.448 281.618 116.795 281.618Z" fill="white"/>
<path d="M124.2 281.618C124.547 281.618 124.828 281.321 124.828 280.956C124.828 280.59 124.547 280.294 124.2 280.294C123.853 280.294 123.572 280.59 123.572 280.956C123.572 281.321 123.853 281.618 124.2 281.618Z" fill="white"/>
<path d="M116.795 286.718C117.142 286.718 117.423 286.422 117.423 286.056C117.423 285.691 117.142 285.395 116.795 285.395C116.448 285.395 116.167 285.691 116.167 286.056C116.167 286.422 116.448 286.718 116.795 286.718Z" fill="white"/>
<path d="M124.2 286.836C124.547 286.836 124.828 286.54 124.828 286.175C124.828 285.809 124.547 285.513 124.2 285.513C123.853 285.513 123.572 285.809 123.572 286.175C123.572 286.54 123.853 286.836 124.2 286.836Z" fill="white"/>
<path d="M94.579 297.392C94.9257 297.392 95.2068 297.096 95.2068 296.73C95.2068 296.365 94.9257 296.068 94.579 296.068C94.2323 296.068 93.9512 296.365 93.9512 296.73C93.9512 297.096 94.2323 297.392 94.579 297.392Z" fill="white"/>
<path d="M100.767 297.392C101.113 297.392 101.394 297.096 101.394 296.73C101.394 296.365 101.113 296.068 100.767 296.068C100.42 296.068 100.139 296.365 100.139 296.73C100.139 297.096 100.42 297.392 100.767 297.392Z" fill="white"/>
<path d="M106.953 297.274C107.3 297.274 107.581 296.978 107.581 296.612C107.581 296.247 107.3 295.95 106.953 295.95C106.606 295.95 106.325 296.247 106.325 296.612C106.325 296.978 106.606 297.274 106.953 297.274Z" fill="white"/>
<path d="M97.1103 294.783C97.457 294.783 97.7381 294.486 97.7381 294.121C97.7381 293.755 97.457 293.459 97.1103 293.459C96.7635 293.459 96.4824 293.755 96.4824 294.121C96.4824 294.486 96.7635 294.783 97.1103 294.783Z" fill="white"/>
<path d="M104.422 294.783C104.769 294.783 105.05 294.486 105.05 294.121C105.05 293.755 104.769 293.459 104.422 293.459C104.075 293.459 103.794 293.755 103.794 294.121C103.794 294.486 104.075 294.783 104.422 294.783Z" fill="white"/>
<path d="M97.0166 299.883C97.3633 299.883 97.6444 299.587 97.6444 299.221C97.6444 298.856 97.3633 298.56 97.0166 298.56C96.6699 298.56 96.3888 298.856 96.3888 299.221C96.3888 299.587 96.6699 299.883 97.0166 299.883Z" fill="white"/>
<path d="M104.422 300.001C104.769 300.001 105.05 299.705 105.05 299.34C105.05 298.974 104.769 298.678 104.422 298.678C104.075 298.678 103.794 298.974 103.794 299.34C103.794 299.705 104.075 300.001 104.422 300.001Z" fill="white"/>
<path fill-rule="evenodd" clip-rule="evenodd" d="M130.219 239.812L134.438 237.75L138.75 239.812H130.219ZM117.469 239.812L121.688 237.75L126 239.812H117.469ZM104.719 239.812L108.938 237.75L113.25 239.812H104.719ZM130.219 193.875L134.438 195.938L138.75 193.969H130.219V193.875ZM117.469 193.875L121.688 195.938L126 193.969H117.469V193.875ZM104.719 193.875L108.938 195.938L113.25 193.969H104.719V193.875Z" fill="white"/>
<path fill-rule="evenodd" clip-rule="evenodd" d="M126.656 245.719L121.688 249.75L116.719 245.719L111.75 249.75L106.781 245.719V247.781L110.156 249.656L108.469 251.719V253.688H110.156L111.75 251.812L113.438 253.688H115.125V251.812L113.438 249.75L116.719 247.781L120.094 249.656L118.406 251.719V253.688H120.094L121.688 251.812L123.375 253.688H124.969V251.812L123.375 249.75L126.656 247.781L129.938 249.656L128.344 251.719V253.688H129.938L131.625 251.812L133.312 253.688H134.906V251.812L133.312 249.75L136.594 247.781V245.625L131.625 249.656L126.656 245.625V245.719ZM126.656 187.969L121.688 183.938L116.719 187.969L111.75 183.938L106.781 187.969V186L110.156 183.938L108.469 182.062V180H110.156L111.75 181.969L113.438 180H115.125V181.969L113.438 184.031L116.719 185.906L120.094 184.031L118.406 181.969V180H120.094L121.688 181.969L123.375 180H124.969V181.969L123.375 184.031L126.656 185.906L129.938 184.031L128.344 181.969V180H129.938L131.625 181.969L133.312 180H134.906V181.969L133.312 184.031L136.594 185.906V187.969L131.625 183.938L126.656 187.969ZM164.156 221.156L169.594 216.844L164.25 212.531L169.594 208.219L164.25 203.906H166.875L169.594 206.719L172.219 205.312H174.844V206.812L172.219 208.219L174.844 209.625V211.125H172.219L169.594 209.625L166.875 212.531L169.594 215.344L172.219 214.031H174.844V215.438L172.219 216.844L174.844 218.25V219.75H172.219L169.594 218.25L166.875 221.156L169.594 223.969L172.219 222.562H174.844V224.062L172.219 225.469L174.844 226.969V228.375H172.219L169.594 226.969L166.875 229.781H164.25L169.594 225.469L164.25 221.156H164.156ZM79.2188 221.156L73.875 216.844L79.2188 212.531L73.875 208.219L79.2188 203.906H76.5L73.875 206.719L71.25 205.312H68.4375V206.812L71.25 208.125L68.5312 209.531V211.031H71.25L73.875 209.531L76.5 212.438L73.875 215.25L71.25 213.938H68.4375V215.344L71.1562 216.75L68.4375 218.156V219.656H71.25L73.875 218.156L76.5 221.062L73.875 223.969L71.25 222.562H68.4375V223.969L71.1562 225.375L68.4375 226.875V228.281H71.25L73.875 226.875L76.5 229.688H79.2188L73.875 225.375L79.2188 221.062V221.156Z" fill="#00843D"/>
<path fill-rule="evenodd" clip-rule="evenodd" d="M166.272 235.849H168.432V237.76H166.272V235.849ZM164.113 237.76H166.272V239.785H164.233L164.113 237.76ZM153.554 247.769H155.714V249.793H153.554V247.769ZM155.714 245.745H157.754V247.769H155.714V245.745ZM85.525 245.745H87.6847V247.769H85.405L85.525 245.745ZM74.8467 235.849H77.0063V237.76H74.8467V235.849ZM77.0063 237.76H79.166V239.785H77.0063V237.76ZM77.0063 193.904H79.166V195.928H77.0063V193.904ZM74.8467 195.928H77.0063V197.952H74.8467V195.928ZM87.6847 184.008H89.7244V186.032H87.8047L87.6847 184.008ZM85.525 186.032H87.6847V188.056H85.405L85.525 186.032ZM153.554 184.008H155.714V186.032H153.554V184.008ZM155.714 186.032H157.754V188.056H155.714V186.032ZM164.113 193.904H166.272V195.928H164.233L164.113 193.904ZM166.272 196.04H168.432V197.952H166.272V196.04ZM87.8047 247.769H89.8443V249.793H87.8047V247.769Z" fill="#00843D"/>
<path fill-rule="evenodd" clip-rule="evenodd" d="M87.5002 183.834H89.899V186.207H87.8593V188.231H85.2206L85.3612 185.858H87.6202L87.5002 183.834ZM87.9693 185.858H89.5505V184.182H87.8699L87.9693 185.858ZM87.5108 186.207H85.6896L85.5903 187.882H87.5108V186.207ZM153.381 183.834H155.889V185.858H157.928V188.231H155.54V186.207H153.381V183.834ZM155.889 186.207V187.882H157.58V186.207H155.889ZM155.54 185.858V184.182H153.729V185.858H155.54ZM76.8325 193.73H79.3407V196.102H77.181V198.127H74.6729V195.754H76.8325V193.73ZM76.8325 196.102H75.0213V197.778H76.8325V196.102ZM77.181 195.754H78.9922V194.078H77.181V195.754ZM163.928 193.73H166.447V195.866H168.607V198.127H166.099V196.102H164.069L163.928 193.73ZM166.447 196.215V197.778H168.258V196.215H166.447ZM166.099 195.754V194.078H164.298L164.397 195.754H166.099ZM74.6729 235.675H77.181V237.587H79.3407V239.959H76.8325V237.935H74.6729V235.675ZM77.181 237.935V239.611H78.9922V237.935H77.181ZM76.8325 237.587V236.023H75.0213V237.587H76.8325ZM166.099 235.675H168.607V237.935H166.447V239.959H164.069L163.928 237.587H166.099V235.675ZM166.099 237.935H164.298L164.397 239.611H166.099V237.935ZM166.447 237.587H168.258V236.023H166.447V237.587ZM85.3612 245.571H87.8593V247.595H90.019V249.968H87.6308V247.943H85.2206L85.3612 245.571ZM87.9793 247.943V249.619H89.6705V247.943H87.9793ZM87.5108 247.595V245.919H85.6896L85.5903 247.595H87.5108ZM155.54 245.571H157.928V247.943H155.889V249.968H153.381V247.595H155.54V245.571ZM155.54 247.943H153.729V249.619H155.54V247.943ZM155.889 247.595H157.58V245.919H155.889V247.595Z" fill="black"/>
<path fill-rule="evenodd" clip-rule="evenodd" d="M115.219 216.844H108.938V212.906H113.156V209.25H117.281V205.875H121.5V210.094C118.031 210.094 115.219 212.906 115.219 216.844Z" fill="white"/>
<path fill-rule="evenodd" clip-rule="evenodd" d="M127.781 216.844H134.062V212.906H129.844V209.25H125.625V205.875H121.5V210.094C124.969 210.094 127.781 212.906 127.781 216.844Z" fill="#FAAE29"/>
<path fill-rule="evenodd" clip-rule="evenodd" d="M127.781 216.844H134.062V220.781H129.844V224.437H125.625V227.812H121.5V223.594C124.969 223.594 127.781 220.781 127.781 216.844Z" fill="white"/>
<path fill-rule="evenodd" clip-rule="evenodd" d="M115.219 216.844H108.938V220.781H113.156V224.437H117.281V227.812H121.5V223.594C118.031 223.594 115.219 220.781 115.219 216.844Z" fill="#FAAE29"/>
<path fill-rule="evenodd" clip-rule="evenodd" d="M127.781 216.844H121.5L121.5 210.094C124.969 210.094 127.781 213.188 127.781 216.844Z" fill="#00843D"/>
<path fill-rule="evenodd" clip-rule="evenodd" d="M127.781 216.844H121.5V223.594C124.969 223.594 127.781 220.594 127.781 216.844Z" fill="#CA3745"/>
<path fill-rule="evenodd" clip-rule="evenodd" d="M115.219 216.844H121.5V223.594C118.031 223.594 115.219 220.594 115.219 216.844Z" fill="#00843D"/>
<path fill-rule="evenodd" clip-rule="evenodd" d="M115.219 216.844H121.5L121.5 210.094C118.031 210.094 115.219 213.188 115.219 216.844Z" fill="#CA3745"/>
<path fill-rule="evenodd" clip-rule="evenodd" d="M128.062 241.781L121.688 237.75L115.312 241.781L108.938 237.75L102.562 241.781V239.812L106.781 237.75L104.719 235.781V233.812H106.781L108.937 235.781L111.094 233.812H113.25V235.781L111.094 237.75L115.312 239.812L119.625 237.75L117.469 235.781V233.812H119.625L121.688 235.781L123.844 233.812H126V235.781L123.844 237.75L128.062 239.812L132.375 237.75L130.219 235.781V233.812H132.375L134.438 235.781L136.594 233.812H138.75V235.781L136.594 237.75L140.812 239.812V241.688L134.438 237.75L128.062 241.781ZM128.062 192L121.688 195.938L115.312 192L108.938 195.938L102.562 192V193.875L106.781 195.938L104.719 197.906V199.969H106.781L108.937 197.906L111.094 199.969H113.25V197.812L111.094 195.938L115.312 193.875L119.625 195.844L117.469 197.812V199.875H119.625L121.688 197.812L123.844 199.875H126V197.812L123.844 195.938L128.062 193.875L132.375 195.844L130.219 197.812V199.875H132.375L134.438 197.812L136.594 199.875H138.75V197.812L136.594 195.938L140.812 193.875V191.906L134.438 195.844L128.062 191.906V192ZM151.5 221.812L148.312 216.844L151.5 211.875L148.312 206.906L151.5 201.938H149.906L148.312 205.219L146.719 203.531H145.125V205.219L146.719 206.906L145.125 208.594V210.188H146.719L148.312 208.594L149.906 211.875L148.312 215.156L146.719 213.562H145.125V215.156L146.719 216.844L145.125 218.531V220.219H146.719L148.312 218.531L149.906 221.812L148.312 225.188L146.719 223.5H145.125V225.188L146.719 226.781L145.125 228.469V230.156H146.719L148.312 228.469L149.906 231.844H151.5L148.312 226.781L151.5 221.812Z" fill="#00843D"/>
<path fill-rule="evenodd" clip-rule="evenodd" d="M102.6 194.018L94.2018 201.889V231.802L102.6 239.786H140.994L149.393 231.914V202.002L140.874 194.018H102.6ZM100.441 187.945L79.2041 207.962V225.954L100.561 245.746H143.034L164.271 225.842V207.85L143.034 187.945H100.441Z" fill="#00843D"/>
<path fill-rule="evenodd" clip-rule="evenodd" d="M100.348 187.711H143.126L164.503 207.747V225.941L143.126 245.976H100.47L78.9717 226.054V207.86L100.348 187.711ZM100.533 188.176L79.4363 208.06V225.851L100.652 245.512H142.942L164.038 225.739V207.948L142.942 188.176H100.533ZM102.508 193.783H140.966L149.625 201.899V232.013L141.086 240.016H102.508L93.9693 231.9V201.787L102.508 193.783ZM102.692 194.248L94.434 201.988V231.7L102.693 239.552H140.902L149.161 231.812V202.101L140.783 194.248H102.692Z" fill="black"/>
<path fill-rule="evenodd" clip-rule="evenodd" d="M111.433 241.734L114.792 245.783L118.248 241.734H111.337H111.433Z" fill="#FAAE29"/>
<path fill-rule="evenodd" clip-rule="evenodd" d="M118.524 241.607L114.791 245.981L111.373 241.862H111.337V241.818L111.335 241.816L111.337 241.814V241.607H118.524ZM111.704 241.862H117.972L114.794 245.585L111.704 241.862Z" fill="black"/>
<path fill-rule="evenodd" clip-rule="evenodd" d="M111.433 191.953L114.792 187.905L118.248 191.953H111.337H111.433Z" fill="#FAAE29"/>
<path fill-rule="evenodd" clip-rule="evenodd" d="M118.524 192.08L114.791 187.707L111.373 191.826H111.337V191.869L111.335 191.872L111.337 191.873V192.08H118.524ZM111.704 191.826H117.972L114.794 188.102L111.704 191.826Z" fill="black"/>
<path fill-rule="evenodd" clip-rule="evenodd" d="M125.12 191.953L128.48 187.905L131.935 191.953H125.024H125.12Z" fill="#FAAE29"/>
<path fill-rule="evenodd" clip-rule="evenodd" d="M132.211 192.08L128.478 187.707L125.061 191.826H125.024V191.869L125.022 191.872L125.024 191.873V192.08H132.211ZM125.391 191.826H131.659L128.481 188.102L125.391 191.826Z" fill="black"/>
<path fill-rule="evenodd" clip-rule="evenodd" d="M125.12 241.734L128.48 245.783L131.935 241.734H125.024H125.12Z" fill="#FAAE29"/>
<path fill-rule="evenodd" clip-rule="evenodd" d="M132.211 241.607L128.478 245.981L125.061 241.862H125.024V241.818L125.022 241.816L125.024 241.814V241.607H132.211ZM125.391 241.862H131.659L128.481 245.585L125.391 241.862Z" fill="black"/>
<path fill-rule="evenodd" clip-rule="evenodd" d="M104.683 191.953L108.042 187.905L111.498 191.953H104.587H104.683Z" fill="#CA3745"/>
<path fill-rule="evenodd" clip-rule="evenodd" d="M111.774 192.08L108.041 187.707L104.623 191.826H104.587V191.869L104.585 191.872L104.587 191.873V192.08H111.774ZM104.954 191.826H111.222L108.044 188.102L104.954 191.826Z" fill="black"/>
<path fill-rule="evenodd" clip-rule="evenodd" d="M118.277 191.953L121.636 187.905L125.092 191.953H118.181H118.277Z" fill="#CA3745"/>
<path fill-rule="evenodd" clip-rule="evenodd" d="M125.367 192.08L121.635 187.707L118.217 191.826H118.181V191.869L118.179 191.872L118.181 191.873V192.08H125.367ZM118.548 191.826H124.816L121.637 188.102L118.548 191.826Z" fill="black"/>
<path fill-rule="evenodd" clip-rule="evenodd" d="M131.87 191.953L135.23 187.905L138.685 191.953H131.774H131.87Z" fill="#CA3745"/>
<path fill-rule="evenodd" clip-rule="evenodd" d="M138.961 192.08L135.228 187.707L131.811 191.826H131.774V191.869L131.772 191.872L131.774 191.873V192.08H138.961ZM132.141 191.826H138.409L135.231 188.102L132.141 191.826Z" fill="black"/>
<path fill-rule="evenodd" clip-rule="evenodd" d="M96.2832 235.784L102.582 241.688H96.2832V235.784Z" fill="#CA3745"/>
<path fill-rule="evenodd" clip-rule="evenodd" d="M96.0215 241.949H103.243L96.0215 235.181V241.949ZM96.5442 241.427V236.388L101.921 241.427H96.5442Z" fill="black"/>
<path fill-rule="evenodd" clip-rule="evenodd" d="M91.875 221.813L95.1562 216.844L91.875 211.875L95.0625 206.906L91.875 201.938H93.4688L95.0625 205.219L96.6562 203.531H98.25V205.219L96.6562 206.906L98.25 208.594V210.188H96.6562L95.0625 208.594L93.4688 211.875L95.0625 215.156L96.6562 213.562H98.25V215.156L96.6562 216.844L98.25 218.531V220.219H96.6562L95.0625 218.531L93.4688 221.813L95.0625 225.188L96.6562 223.5H98.25V225.188L96.6562 226.781L98.25 228.469V230.156H96.6562L95.0625 228.469L93.4688 231.844H91.875L95.0625 226.781L91.875 221.813Z" fill="#00843D"/>
<path fill-rule="evenodd" clip-rule="evenodd" d="M153.543 211.466H162.062L164.221 213.288L162.062 215.11H153.663V211.365L153.543 211.466Z" fill="#CA3745"/>
<path fill-rule="evenodd" clip-rule="evenodd" d="M153.498 211.63H153.091L153.828 211.008V211.299H162.122L164.478 213.287L162.122 215.274H153.498V211.63ZM153.828 211.63H162.001L163.965 213.287L162.001 214.943H153.828V211.63Z" fill="black"/>
<path fill-rule="evenodd" clip-rule="evenodd" d="M96.2281 197.953L91.9088 202.001V231.802L96.2281 235.85H89.8691V197.953H96.2281Z" fill="#CA3745"/>
<path fill-rule="evenodd" clip-rule="evenodd" d="M89.6377 197.721H96.8166L92.142 202.102V231.701L96.8166 236.082H89.6377V197.721ZM90.1023 198.185V235.617H95.6414L91.6774 231.902V201.901L95.6414 198.185H90.1023Z" fill="black"/>
<path fill-rule="evenodd" clip-rule="evenodd" d="M104.683 241.734L108.042 245.783L111.498 241.734H104.587H104.683Z" fill="#CA3745"/>
<path fill-rule="evenodd" clip-rule="evenodd" d="M111.774 241.607L108.041 245.981L104.623 241.862H104.587V241.818L104.585 241.816L104.587 241.814V241.607H111.774ZM104.954 241.862H111.222L108.044 245.585L104.954 241.862Z" fill="black"/>
<path fill-rule="evenodd" clip-rule="evenodd" d="M118.277 241.734L121.636 245.783L125.092 241.734H118.181H118.277Z" fill="#CA3745"/>
<path fill-rule="evenodd" clip-rule="evenodd" d="M125.367 241.607L121.635 245.981L118.217 241.862H118.181V241.818L118.179 241.816L118.181 241.814V241.607H125.367ZM118.548 241.862H124.816L121.637 245.585L118.548 241.862Z" fill="black"/>
<path fill-rule="evenodd" clip-rule="evenodd" d="M131.87 241.734L135.23 245.783L138.685 241.734H131.774H131.87Z" fill="#CA3745"/>
<path fill-rule="evenodd" clip-rule="evenodd" d="M138.961 241.607L135.228 245.981L131.811 241.862H131.774V241.818L131.772 241.816L131.774 241.814V241.607H138.961ZM132.141 241.862H138.409L135.231 245.585L132.141 241.862Z" fill="black"/>
<path fill-rule="evenodd" clip-rule="evenodd" d="M147.147 197.953L151.466 202.001V231.802L147.147 235.85H153.506V197.953H147.147Z" fill="#CA3745"/>
<path fill-rule="evenodd" clip-rule="evenodd" d="M153.737 197.721H146.558L151.233 202.102V231.701L146.558 236.082H153.737V197.721ZM153.273 198.185V235.617H147.734L151.698 231.902V201.901L147.734 198.185H153.273Z" fill="black"/>
<path fill-rule="evenodd" clip-rule="evenodd" d="M147.186 235.784L140.887 241.688H147.186V235.784Z" fill="#CA3745"/>
<path fill-rule="evenodd" clip-rule="evenodd" d="M147.447 241.949H140.226L147.447 235.181V241.949ZM146.925 241.427V236.388L141.548 241.427H146.925Z" fill="black"/>
<path fill-rule="evenodd" clip-rule="evenodd" d="M147.186 197.903L140.887 192H147.186V197.903Z" fill="#CA3745"/>
<path fill-rule="evenodd" clip-rule="evenodd" d="M147.447 191.738H140.226L147.447 198.506V191.738ZM146.925 192.261V197.3L141.548 192.261H146.925Z" fill="black"/>
<path fill-rule="evenodd" clip-rule="evenodd" d="M96.2832 197.903L102.582 192H96.2832V197.903Z" fill="#CA3745"/>
<path fill-rule="evenodd" clip-rule="evenodd" d="M96.0215 191.738H103.243L96.0215 198.506V191.738ZM96.5442 192.261V197.3L101.921 192.261H96.5442Z" fill="black"/>
<path fill-rule="evenodd" clip-rule="evenodd" d="M102.6 194.016L94.2017 201.888V231.801L102.6 239.785H140.994L149.393 231.913V202.001L140.874 194.016H102.6ZM102.6 191.992L92.042 201.888V231.801L102.6 241.809H140.994L151.553 231.801V201.888L140.874 191.992H102.6Z" fill="#00843D"/>
<path fill-rule="evenodd" clip-rule="evenodd" d="M102.508 191.762H140.965L151.785 201.788V231.902L141.087 242.043H102.508L91.8096 231.902V201.789L102.508 191.762ZM102.692 192.226L92.2742 201.991V231.703L102.693 241.578H140.902L151.32 231.703V201.991L140.783 192.226H102.692ZM102.508 193.786H140.966L149.625 201.902V232.016L141.086 240.019H102.507L93.9692 231.902V201.789L102.508 193.786ZM102.692 194.251L94.4339 201.991V231.703L102.693 239.554H140.902L149.161 231.814V202.103L140.782 194.251H102.692Z" fill="black"/>
<path fill-rule="evenodd" clip-rule="evenodd" d="M153.543 215.039H162.062L164.221 216.861L162.062 218.683H153.663V214.938L153.543 215.039Z" fill="#FAAE29"/>
<path fill-rule="evenodd" clip-rule="evenodd" d="M153.498 215.204H153.091L153.828 214.582V214.874H162.122L164.478 216.861L162.122 218.848H153.498V215.204ZM153.828 215.204H162.001L163.965 216.861L162.001 218.518H153.828V215.204Z" fill="black"/>
<path fill-rule="evenodd" clip-rule="evenodd" d="M153.543 218.591H162.062L164.221 220.413L162.062 222.235H153.663V218.49L153.543 218.591Z" fill="#CA3745"/>
<path fill-rule="evenodd" clip-rule="evenodd" d="M153.498 218.755H153.091L153.828 218.133V218.424H162.122L164.478 220.412L162.122 222.399H153.498V218.755ZM153.828 218.755H162.001L163.965 220.412L162.001 222.068H153.828V218.755Z" fill="black"/>
<path fill-rule="evenodd" clip-rule="evenodd" d="M153.543 222.164H162.062L164.221 223.986L162.062 225.808H153.663V222.062L153.543 222.164Z" fill="#FAAE29"/>
<path fill-rule="evenodd" clip-rule="evenodd" d="M153.498 222.329H153.091L153.828 221.707V221.999H162.122L164.478 223.986L162.122 225.973H153.498V222.329ZM153.828 222.329H162.001L163.965 223.986L162.001 225.643H153.828V222.329Z" fill="black"/>
<path fill-rule="evenodd" clip-rule="evenodd" d="M153.543 207.82H162.062L164.221 209.642L162.062 211.464H153.663V207.719L153.543 207.82Z" fill="#FAAE29"/>
<path fill-rule="evenodd" clip-rule="evenodd" d="M153.498 207.986H153.091L153.828 207.363V207.655H162.122L164.478 209.642L162.122 211.629L153.498 211.63L153.498 207.986ZM153.828 207.986H162.001L163.965 209.642L162.001 211.299L153.828 211.299L153.828 207.986Z" fill="black"/>
<path fill-rule="evenodd" clip-rule="evenodd" d="M89.832 211.466H81.3134L79.1537 213.288L81.3134 215.11H89.7121V211.365L89.832 211.466Z" fill="#CA3745"/>
<path fill-rule="evenodd" clip-rule="evenodd" d="M89.8772 211.63H90.2842L89.5466 211.008V211.299H81.2528L78.8972 213.287L81.2528 215.274H89.8772V211.63ZM89.5466 211.63H81.3736L79.4099 213.287L81.3736 214.943H89.5466V211.63Z" fill="black"/>
<path fill-rule="evenodd" clip-rule="evenodd" d="M89.832 215.039H81.3134L79.1537 216.861L81.3134 218.683H89.7121V214.938L89.832 215.039Z" fill="#FAAE29"/>
<path fill-rule="evenodd" clip-rule="evenodd" d="M89.8772 215.204H90.2842L89.5466 214.582V214.874H81.2528L78.8972 216.861L81.2528 218.848H89.8772V215.204ZM89.5466 215.204H81.3736L79.4099 216.861L81.3736 218.518H89.5466V215.204Z" fill="black"/>
<path fill-rule="evenodd" clip-rule="evenodd" d="M89.832 218.591H81.3134L79.1537 220.413L81.3134 222.235H89.7121V218.49L89.832 218.591Z" fill="#CA3745"/>
<path fill-rule="evenodd" clip-rule="evenodd" d="M89.8772 218.755H90.2842L89.5466 218.133V218.424H81.2528L78.8972 220.412L81.2528 222.399H89.8772V218.755ZM89.5466 218.755H81.3736L79.4099 220.412L81.3736 222.068H89.5466V218.755Z" fill="black"/>
<path fill-rule="evenodd" clip-rule="evenodd" d="M89.832 222.164H81.3134L79.1537 223.986L81.3134 225.808H89.7121V222.062L89.832 222.164Z" fill="#FAAE29"/>
<path fill-rule="evenodd" clip-rule="evenodd" d="M89.8772 222.329H90.2842L89.5466 221.707V221.999H81.2528L78.8972 223.986L81.2528 225.973H89.8772V222.329ZM89.5466 222.329H81.3736L79.4099 223.986L81.3736 225.643H89.5466V222.329Z" fill="black"/>
<path fill-rule="evenodd" clip-rule="evenodd" d="M89.832 207.82H81.3134L79.1537 209.642L81.3134 211.464H89.7121V207.719L89.832 207.82Z" fill="#FAAE29"/>
<path fill-rule="evenodd" clip-rule="evenodd" d="M89.8772 207.986H90.2842L89.5466 207.363V207.655H81.2528L78.8972 209.642L81.2528 211.629L89.8772 211.63L89.8772 207.986ZM89.5466 207.986H81.3736L79.4099 209.642L81.3736 211.299L89.5466 211.299V207.986Z" fill="black"/>
<path fill-rule="evenodd" clip-rule="evenodd" d="M77.0068 196.04V237.648H87.6852V247.656H155.715V237.648H166.273L166.272 196.04L155.715 196.04V186.145H87.6852V196.04H77.0068ZM79.1665 197.952V235.849H89.7248V245.745H153.555V235.849H164.233V197.952H153.555V188.169H89.7248V198.065H79.1665V197.952Z" fill="#970000"/>
<path fill-rule="evenodd" clip-rule="evenodd" d="M87.5104 185.971H155.888V195.867L166.447 195.866L166.447 237.823H155.888V247.831H87.5104V237.823H76.832V195.867H87.5104V185.971ZM87.8588 186.319V196.215H77.1805V237.474H87.8588V247.483H155.54V237.474H166.098V196.215H155.54V186.319H87.8588ZM89.55 187.995H153.729V197.778H164.407V236.023H153.729V245.919H89.55V236.023H78.9917V197.953L79.1665 197.952L79.1659 197.891H89.55V187.995ZM79.3402 198.239V235.675H89.8985V245.571H153.38V235.675H164.058V198.127H153.38V188.343H89.8985V198.239H79.3402Z" fill="black"/>
<path fill-rule="evenodd" clip-rule="evenodd" d="M174.801 40.3177L168.442 32.6397V26.9082L162.083 21.1768H149.365L138.686 15.4453H104.732L94.0532 21.1768H81.3352L74.9762 26.9082V32.6397L68.6172 40.2095V55.6736L74.9762 63.2435V69.0831L81.3352 74.8145H94.0532L104.732 80.546H138.686L149.365 74.8145H162.083L168.562 69.0831V63.3516L174.921 55.6736V40.2095L174.801 40.3177Z" fill="#CA3745"/>
<path fill-rule="evenodd" clip-rule="evenodd" d="M104.689 15.2754H138.729L149.408 21.0068H162.148L168.612 26.8331V32.579L174.819 40.0724L175.091 39.8265V55.7361L168.732 63.4141V69.161L162.147 74.9863H149.408L138.729 80.7178H104.689L94.0102 74.9863H81.2695L74.8053 69.16V63.3067L68.4463 55.7368V40.1482L74.8053 32.5784V26.8331L81.2695 21.0068H94.0102L104.689 15.2754ZM174.75 40.525L168.271 32.7022V26.9852L162.017 21.3486H149.322L138.643 15.6171H104.774L94.0961 21.3486H81.4008L75.147 26.9852V32.7029L68.788 40.2727V55.6123L75.147 63.1822V69.008L81.4008 74.6446H94.0961L104.774 80.3761H138.643L149.322 74.6446H162.018L168.391 69.007V63.291L174.75 55.613V40.525Z" fill="black"/>
<path fill-rule="evenodd" clip-rule="evenodd" d="M70.6875 48V53.7188L77.0625 61.4062V67.125L83.4375 72.9375H96.1875L106.875 78.5625H121.688V48.0938H70.6875V48Z" fill="#FAAE29"/>
<path fill-rule="evenodd" clip-rule="evenodd" d="M103.781 61.4062L96 66.375H91.3125L92.9062 67.9688L89.8125 71.25L91.4062 72.9375L96.0938 71.25L97.5937 72.9375L98.25 68.5312L106.875 63.2812L103.781 61.4062Z" fill="#CA3745"/>
<path fill-rule="evenodd" clip-rule="evenodd" d="M95.25 57.5625L87.4688 62.5312H82.875L84.375 64.125L81.375 67.4062L82.875 69.0938L87.5625 67.4062L89.0625 69.0938L89.8125 64.6875L98.3438 59.5312L95.25 57.6562V57.5625ZM91.0312 49.875L83.25 54.8438H78.5625L80.1562 56.5312L77.0625 59.8125L78.6563 61.4062L83.3438 59.7188L84.8438 61.4062L85.5 57L94.125 51.8438L91.0312 49.9688V49.875Z" fill="#CA3745"/>
<path fill-rule="evenodd" clip-rule="evenodd" d="M172.688 48V42.2812L166.312 34.5938V28.875L159.938 23.0625H147.188L136.594 17.3438H121.688V48H172.688Z" fill="#FAAE29"/>
<path fill-rule="evenodd" clip-rule="evenodd" d="M121.688 78.6562H117.75L113.25 74.8125H105.938L102 72.9375L103.969 71.0625L107.906 72.9375H111.844L115.781 67.125L121.688 69V72.9375H115.781L121.688 78.5625V78.6562Z" fill="#CA3745"/>
<path fill-rule="evenodd" clip-rule="evenodd" d="M70.6875 48V42.2812L77.0625 34.5938V28.875L83.4375 23.0625H96.1875L106.875 17.3438H121.688V48H70.6875Z" fill="white"/>
<path fill-rule="evenodd" clip-rule="evenodd" d="M121.688 17.3438H117.75L113.25 21.0938H105.938L102 23.0625L103.969 24.9375L107.906 23.0625H111.844L115.781 28.875L121.688 27V23.0625H115.781L121.688 17.3438Z" fill="#CA3745"/>
<path fill-rule="evenodd" clip-rule="evenodd" d="M121.688 17.3438H125.625L130.219 21.0938H137.438L141.375 23.0625L139.5 24.9375L135.469 23.0625H131.531L127.594 28.875L121.688 27V23.0625H127.594L121.688 17.3438Z" fill="#CA3745"/>
<path fill-rule="evenodd" clip-rule="evenodd" d="M172.688 48V53.7188L166.312 61.4062V67.125L159.938 72.9375H147.188L136.594 78.5625H121.688V48.0938H172.688V48Z" fill="white"/>
<path fill-rule="evenodd" clip-rule="evenodd" d="M121.688 78.6562H125.625L130.219 74.8125H137.438L141.375 72.9375L139.5 71.0625L135.469 72.9375H131.531L127.594 67.125L121.688 69V72.9375L127.594 72.9375L121.688 78.5625V78.6562ZM95.25 38.3438L87.4688 33.4688H82.875L84.375 31.875L81.375 28.5938L82.875 26.9062L87.5625 28.5938L89.0625 26.9062L89.8125 31.3125L98.3438 36.4688L95.25 38.3438ZM139.688 34.5938L147.375 29.625H152.062L150.469 28.0312L153.562 24.75L152.062 23.0625L147.375 24.75L145.875 23.0625L145.125 27.4688L136.594 32.7188L139.688 34.5938Z" fill="#CA3745"/>
<path fill-rule="evenodd" clip-rule="evenodd" d="M103.781 34.5938L96 29.625H91.3125L92.9062 28.0312L89.8125 24.75L91.4062 23.0625L96.0938 24.75L97.5938 23.0625L98.25 27.4688L106.875 32.625L103.781 34.5V34.5938ZM90.9375 46.125L83.1562 41.1562H78.4688L80.0625 39.4688L76.9688 36.1875L78.75 34.6875L83.4375 36.375L84.9375 34.6875L85.5938 39.0938L94.2188 44.25L91.125 46.125H90.9375Z" fill="#CA3745"/>
<path fill-rule="evenodd" clip-rule="evenodd" d="M74.5312 48H76.4062L78.375 49.875L80.3438 48H121.688V74.8125H119.812L121.688 76.6875V78.75L115.781 73.0312V71.1562H117.75V73.0312H119.719V71.1562L103.781 62.7188H90.2812V54.2812L84.375 50.0625H80.4375L78.4688 51.9375L80.3438 53.8125H78.4688L74.5312 48.1875V48Z" fill="white"/>
<path fill-rule="evenodd" clip-rule="evenodd" d="M74.5312 48H76.4062L78.375 46.125L80.3438 48H121.688V21.1875H119.812L121.688 19.3125V17.3438L115.781 23.0625V24.9375H117.75V23.0625H119.719V24.9375L103.781 33.4688H90.2812V41.8125L84.375 46.125H80.4375L78.4688 44.25L80.3438 42.2812H78.4688L74.5312 48Z" fill="#FAAE29"/>
<path fill-rule="evenodd" clip-rule="evenodd" d="M83.4375 48H121.688V70.9688L104.719 61.4062H91.9688V53.7188L83.5312 48H83.4375Z" fill="#00843D"/>
<path fill-rule="evenodd" clip-rule="evenodd" d="M148.125 38.4375L155.906 33.4688H160.594L159 31.875L162.094 28.5938L160.594 26.9062L155.906 28.5938L154.406 26.9062L153.656 31.3125L145.125 36.4688L148.125 38.3438V38.4375ZM152.438 46.125L160.219 41.1562H164.812L163.219 39.4688L166.312 36.1875L164.812 34.5938L160.125 36.2812L158.625 34.5938L157.875 39L149.344 44.1562L152.438 46.0312V46.125Z" fill="#CA3745"/>
<path fill-rule="evenodd" clip-rule="evenodd" d="M168.938 48H166.969L165 46.125L163.031 48H121.688V21.1875H123.656L121.688 19.3125V17.3438L127.594 23.0625V24.9375H125.625V23.0625H123.656V24.9375L139.594 33.4688H153.094V41.8125L159.094 46.125H163.031L164.906 44.25L163.031 42.2812H164.906L168.938 48Z" fill="white"/>
<path fill-rule="evenodd" clip-rule="evenodd" d="M121.688 48V25.0312L138.75 34.5938H151.5V42.2812L160.031 48H121.688Z" fill="#00843D"/>
<path fill-rule="evenodd" clip-rule="evenodd" d="M139.688 61.4062L147.375 66.375H152.062L150.469 67.9688L153.562 71.25L152.062 72.9375L147.375 71.25L145.875 72.9375L145.125 68.5312L136.594 63.2812L139.688 61.4062Z" fill="#CA3745"/>
<path fill-rule="evenodd" clip-rule="evenodd" d="M148.125 57.5625L155.906 62.5312H160.594L159 64.125L162.094 67.4062L160.594 69.0938L155.906 67.4062L154.406 69.0938L153.656 64.6875L145.125 59.5312L148.125 57.6562V57.5625ZM152.438 49.875L160.219 54.8438H164.812L163.219 56.4375L166.312 59.7188L164.812 61.4062L160.125 59.7188L158.625 61.4062L157.875 57L149.344 51.8438L152.438 49.9688V49.875Z" fill="#CA3745"/>
<path fill-rule="evenodd" clip-rule="evenodd" d="M168.938 48H166.969L165 49.875L163.031 48H121.688V74.8125H123.656L121.688 76.6875V78.75L127.594 73.0312V71.1562H125.625V73.0312H123.656V71.1562L139.594 62.7188H153.094V54.2812L159.094 50.0625H163.031L164.906 51.9375L163.031 53.8125H164.906L168.938 48.1875V48Z" fill="#FAAE29"/>
<path fill-rule="evenodd" clip-rule="evenodd" d="M121.688 48V70.9688L138.75 61.4062H151.5V53.7188L160.031 48H121.688ZM83.4375 48H121.688V25.0312L104.719 34.5938H91.9688V42.2812L83.5312 48H83.4375Z" fill="#CA3745"/>
<path fill-rule="evenodd" clip-rule="evenodd" d="M125.906 48L136.594 42.2812H142.969L140.812 40.4062L145.125 36.4688L142.969 34.5938L136.594 36.4688L134.438 34.5938L133.5 39.75L121.688 45.75L125.906 48ZM117.469 48L106.875 53.7188H100.5L102.562 55.5938L98.3438 59.5312L100.5 61.4062L106.875 59.5312L108.938 61.4062L109.875 56.25L121.688 50.25L117.469 48Z" fill="#CA3745"/>
<path fill-rule="evenodd" clip-rule="evenodd" d="M117.469 48L106.875 42.2812H100.5L102.656 40.4062L98.4375 36.4688L100.594 34.5938L106.969 36.4688L109.031 34.5938L109.969 39.75L121.781 45.75L117.562 48H117.469ZM125.906 48L136.594 53.7188H142.969L140.812 55.5938L145.125 59.5312L142.969 61.4062L136.594 59.5312L134.438 61.4062L133.5 56.25L121.688 50.25L125.906 48Z" fill="#00843D"/>
<path fill-rule="evenodd" clip-rule="evenodd" d="M108.938 48L121.688 38.4375L134.438 48L121.688 57.5625L108.938 48Z" fill="white"/>
<path fill-rule="evenodd" clip-rule="evenodd" d="M80.3437 51.8438L82.3125 53.7188L80.4375 55.5938H78.375L72.4688 48H74.4375L78.375 53.7188H80.3437L78.4687 51.8438L80.3437 49.9688H84.375V51.8438H80.3437Z" fill="#CA3745"/>
<path fill-rule="evenodd" clip-rule="evenodd" d="M80.3437 44.1562L82.3125 42.2812L80.4375 40.4062H78.375L72.4688 48H74.4375L78.375 42.2812H80.3438L78.4687 44.1562L80.3437 46.0312H84.375V44.1562H80.3437ZM163.031 51.8438L161.156 53.7188L163.031 55.5938H165L170.906 48H169.031L165 53.7188H163.125L165 51.8438L163.125 49.9688H159.094V51.8438H163.031Z" fill="#CA3745"/>
<path fill-rule="evenodd" clip-rule="evenodd" d="M163.125 44.1562L161.062 42.2812L163.031 40.4062H165L170.906 48H169.031L165 42.2812H163.125L165 44.1562L163.125 46.0312H159.094V44.1562H163.125ZM119.719 40.4062H123.656V55.6875H119.719V40.4062Z" fill="#CA3745"/>
<path fill-rule="evenodd" clip-rule="evenodd" d="M113.812 44.1562H129.562V51.8438H113.812V44.1562Z" fill="#CA3745"/>
<path fill-rule="evenodd" clip-rule="evenodd" d="M103.702 339.178L68.374 358.653V390.391L104.035 409.866H139.363L174.691 390.391V358.653L139.363 339.538H104.035L103.702 339.178Z" fill="#00843D"/>
<path fill-rule="evenodd" clip-rule="evenodd" d="M103.737 338.961L104.111 339.366H139.406L174.864 358.55V390.494L139.407 410.04H103.99L68.2002 390.494V358.551L103.737 338.961ZM68.5469 358.756V390.289L104.079 409.694H139.318L174.517 390.289V358.757L139.319 339.712H103.959L103.666 339.396L68.5469 358.756Z" fill="black"/>
<path fill-rule="evenodd" clip-rule="evenodd" d="M81.75 371.531H83.8125V367.5H88.125V371.438H90.2813V362.25H88.125V366.188H83.9062V362.25H81.75V371.531ZM136.031 402.094H138.188V398.156H142.406V402.094H144.562V392.812H142.5V396.75H138.188V392.812H136.125V402L136.031 402.094ZM101.719 356.156H103.875V352.312H108.188V356.25H110.25V347.062H108.188V351H103.875V347.062H101.719V356.25V356.156ZM133.125 356.156H135.281V352.312H139.594V356.25H141.75V347.062H139.594V351H135.281V347.062H133.125V356.25V356.156ZM153.188 371.531H155.25V367.5H159.562V371.438H161.719V362.25H159.562V366.188H155.25V362.25H153.188V371.531ZM153.188 386.812H155.25V382.875H159.562V386.812H161.719V377.625H159.562V381.562H155.25V377.625H153.188V386.812Z" fill="#CC0000"/>
<path fill-rule="evenodd" clip-rule="evenodd" d="M121.688 408.188V374.531H173.156V389.812L138.75 408.188H121.594H121.688ZM121.688 340.969V374.531H70.3125V359.25L104.531 340.969H121.688Z" fill="#FAAE29"/>
<path fill-rule="evenodd" clip-rule="evenodd" d="M121.688 340.969V374.531H173.156V359.25L138.75 340.969H121.594H121.688ZM121.688 408.188V374.531H70.3125V389.812L104.531 408.188H121.688Z" fill="white"/>
<path fill-rule="evenodd" clip-rule="evenodd" d="M149.167 360.863H169.777L149.167 351.72V360.863ZM173.163 359.31V374.577H140.652V362.415H133.782L125.171 357.844V347.149L130.396 342.492H123.526V357.844H121.784V341.025H138.911L173.163 359.31Z" fill="#FAAE29"/>
<path fill-rule="evenodd" clip-rule="evenodd" d="M121.739 340.98H138.923L173.186 359.271L173.164 359.311H173.21V374.623H140.607V362.462H133.772L125.126 357.872V347.129L130.277 342.538H123.572V357.891H121.739V340.98ZM173.118 359.339L138.9 341.072H121.831V357.799H123.481V342.447H130.516L125.217 347.17V357.817L133.794 362.37H140.699V374.532H173.118V359.339ZM149.122 351.651L169.796 360.822L169.778 360.909H149.122V351.651ZM149.214 351.791V360.818H169.562L149.214 351.791Z" fill="black"/>
<path fill-rule="evenodd" clip-rule="evenodd" d="M104.531 363.844V385.312H109.688L121.688 391.5L133.688 385.312H138.844V363.938H133.688L121.688 357.844L109.688 363.938H104.531V363.844Z" fill="#CA3745"/>
<path fill-rule="evenodd" clip-rule="evenodd" d="M94.3017 388.293H73.6919L94.3017 397.436V388.293ZM70.3053 389.846V374.58H102.816V386.741H109.686L118.298 391.312V402.007L113.073 406.665H119.943V391.312H121.685V408.131H104.558L70.3053 389.846Z" fill="#FAAE29"/>
<path fill-rule="evenodd" clip-rule="evenodd" d="M121.729 408.176H104.546L70.2831 389.885L70.3046 389.845H70.2589V374.533H102.861V386.694H109.697L118.343 391.284V402.027L113.192 406.618H119.896V391.266H121.729V408.176ZM70.3503 389.818L104.569 408.084H121.638V391.357H119.988V406.71H112.952L118.252 401.986V391.339L109.674 386.786H102.77V374.625H70.3503V389.818ZM94.3466 397.505L73.6726 388.334L73.6912 388.247H94.3466V397.505ZM94.2552 397.365V388.338H73.9068L94.2552 397.365Z" fill="black"/>
<path fill-rule="evenodd" clip-rule="evenodd" d="M94.3017 360.863H73.6919L94.3017 351.72V360.863ZM70.3053 359.31V374.577H102.816V362.415H109.686L118.298 357.844V347.149L113.073 342.492H119.943V357.844H121.685V341.025H104.558L70.3053 359.31Z" fill="white"/>
<path fill-rule="evenodd" clip-rule="evenodd" d="M121.729 340.98H104.546L70.2831 359.271L70.3046 359.311H70.2589V374.623H102.861V362.462H109.697L118.343 357.872V347.129L113.192 342.538H119.896V357.891H121.729V340.98ZM70.3503 359.339L104.569 341.072H121.638V357.799H119.988V342.447H112.952L118.252 347.17V357.817L109.674 362.37H102.77V374.532H70.3503V359.339ZM94.3466 351.651L73.6726 360.822L73.6912 360.909H94.3466V351.651ZM94.2552 351.791V360.818H73.9068L94.2552 351.791Z" fill="black"/>
<path fill-rule="evenodd" clip-rule="evenodd" d="M149.167 388.293H169.777L149.167 397.436V388.293ZM173.163 389.846V374.58H140.652V386.741H133.782L125.171 391.312V402.007L130.396 406.665H123.526V391.312H121.784V408.131H138.911L173.163 389.846Z" fill="white"/>
<path fill-rule="evenodd" clip-rule="evenodd" d="M121.739 408.176H138.923L173.186 389.885L173.164 389.845H173.21V374.533H140.607V386.694H133.772L125.126 391.284V402.027L130.277 406.618H123.572V391.266H121.739V408.176ZM173.118 389.818L138.9 408.084H121.831V391.357H123.481V406.71H130.516L125.217 401.986V391.339L133.794 386.786H140.699V374.625H173.118V389.818ZM149.122 397.505L169.796 388.334L169.778 388.247H149.122V397.505ZM149.214 397.365V388.338H169.562L149.214 397.365Z" fill="black"/>
<path fill-rule="evenodd" clip-rule="evenodd" d="M80.625 386.812H82.6875V382.125H87V386.812H89.1562V376.125H87V380.719H82.6875V376.031H80.625V386.812ZM101.156 402.094H103.312V397.406H107.531V402.094H109.688V391.406H107.531V396H103.312V391.312H101.156V402.188V402.094ZM80.5312 362.344H82.6875V366.938H87V362.25H89.1562V373.125H87V368.438H82.6875V373.031H80.625V362.344H80.5312ZM101.156 347.062H103.312V351.656H107.531V346.969H109.688V357.75H107.531V353.156H103.312V357.844H101.156V347.062ZM133.688 402.094H135.844V397.406H140.156V402.094H142.312V391.406H140.156V396H135.844V391.312H133.688V402.188V402.094ZM154.312 373.031H156.469V368.438H160.687V373.125H162.844V362.344H160.687V366.938H156.562V362.25H154.406V373.125L154.312 373.031Z" fill="#CA3745"/>
<path fill-rule="evenodd" clip-rule="evenodd" d="M133.688 402.094H135.844V397.406H140.156V402.094H142.312V391.406H140.156V396H135.844V391.312H133.688V402.188V402.094Z" fill="#CA3745"/>
<path fill-rule="evenodd" clip-rule="evenodd" d="M133.688 402.094H135.844V397.406H140.156V402.094H142.312V391.406H140.156V396H135.844V391.312H133.688V402.188V402.094ZM154.312 386.812H156.469V382.125H160.687V386.812H162.844V376.125H160.687V380.625H156.562V376.031H154.406V386.812H154.312ZM133.688 357.75H135.844V353.156H140.156V357.844H142.312V347.062H140.156V351.656H135.844V346.969H133.688V357.75Z" fill="#CA3745"/>
<path fill-rule="evenodd" clip-rule="evenodd" d="M123.469 374.531L130.312 368.906H133.688V371.719H130.312V373.125H135.469V367.594H130.312V363.375H123.469V367.594H125.156V364.781H128.531V367.594L121.688 373.219L114.844 367.594V364.781H118.312V367.594H120V363.375H113.156V367.594H108V373.219H113.156V371.812H109.688V369H113.156L120 374.625L113.156 380.156H109.688V377.344H113.156V375.938H108V381.562H113.156V385.688H120V381.562H118.312V384.375H114.844V381.562L121.688 375.938L128.531 381.562V384.375H125.156V381.562H123.469V385.688H130.312V381.562H135.469V375.938H130.312V377.344H133.688V380.156H130.312L123.469 374.531Z" fill="white"/>
<path fill-rule="evenodd" clip-rule="evenodd" d="M73.6632 137.728L76.953 134.314H96.8854L111.786 119.31H131.719L146.62 134.404H166.552L169.842 137.728L166.552 141.053H146.523L131.622 156.147H111.69L96.8854 141.053H76.8562L73.5664 137.728H73.6632Z" fill="#CA3745"/>
<path fill-rule="evenodd" clip-rule="evenodd" d="M75.3533 138.003L77.1551 136.369H97.6949L113.1 120.523H130.216L145.711 136.451H166.251L167.963 138.084L166.251 139.636H145.711L131.928 153.93H111.388L97.6949 139.636H77.065L75.3533 138.003Z" fill="#CA3745"/>
<path fill-rule="evenodd" clip-rule="evenodd" d="M113.045 120.395H130.271L145.766 136.322H166.303L168.152 138.087L166.301 139.765H145.766L131.983 154.059H111.333L97.64 139.765H77.0134L75.2645 138.096L75.3533 138.003L75.2669 137.907L77.1054 136.24H97.6405L113.045 120.395ZM75.5422 138.005L77.1165 139.508H97.7498L111.443 153.801H131.873L145.657 139.508H166.201L167.774 138.082L166.199 136.579H145.657L130.162 120.652H113.154L97.7492 136.498H77.2047L75.5422 138.005Z" fill="black"/>
<path fill-rule="evenodd" clip-rule="evenodd" d="M130.073 139.436L136.653 146.085L133.363 149.409L131.622 147.792H130.073V149.409L131.718 151.116H135.105L138.395 147.792V144.378L131.718 137.729L138.395 130.99V127.666L135.105 124.342H131.718L130.073 125.959V127.666H131.718L133.46 125.959L136.75 129.373L130.073 136.022L123.494 129.373L130.073 122.635V120.927H128.429L121.849 127.666L115.173 120.927H113.528V122.635L120.107 129.373L113.528 136.022L106.851 129.373L110.238 125.959L111.883 127.666H113.528V125.959L111.883 124.342H108.496L105.206 127.666V130.99L111.883 137.729L105.206 144.378V147.792L108.496 151.116H111.883L113.528 149.409V147.792H111.689L110.044 149.409L106.658 146.085L113.334 139.436L119.914 146.085L113.334 152.824V154.441H114.979L121.655 147.792L128.235 154.441H129.88V152.824L123.3 146.085L129.88 139.436H130.073ZM121.752 130.99L115.076 137.729L121.752 144.378L128.332 137.729L121.752 130.99ZM111.786 156.148V169.625L113.431 167.828L115.076 169.625L116.721 167.828L118.366 169.625L120.107 167.828L121.752 169.625L123.397 167.828L125.042 169.625L126.687 167.828L128.332 169.625L129.977 167.828L131.718 169.625V156.148L111.69 156.147L111.786 156.148ZM131.719 119.31L131.718 105.833L129.977 107.63L128.332 105.833L126.687 107.63L125.042 105.833L123.397 107.63L121.752 105.833L120.011 107.63L118.366 105.833L116.721 107.63L115.076 105.833L113.431 107.63L111.786 105.833L111.786 119.31H131.719ZM159.779 134.405V120.927L158.23 122.724L156.586 120.927L154.941 122.724L153.199 120.927L151.554 122.724L149.909 120.927L148.264 122.724L146.619 120.927L146.62 134.404L159.875 134.405H159.779ZM96.885 134.405V120.927L95.1433 122.724L93.4984 120.927L91.8535 122.724L90.2086 120.927L88.5637 122.724L86.9188 120.927L85.1771 122.724L83.5322 120.927V134.405H96.7883H96.885ZM159.875 141.053V154.531L158.23 152.734L156.586 154.531L154.941 152.734L153.199 154.531L151.554 152.734L149.909 154.531L148.264 152.734L146.619 154.531V141.053H159.875ZM96.7883 141.053V154.531L95.1433 152.734L93.4984 154.531L91.8535 152.734L90.2086 154.531L88.5637 152.734L86.9188 154.531L85.1771 152.734L83.5322 154.531V141.053H96.7883Z" fill="#FAAE29"/>
<path fill-rule="evenodd" clip-rule="evenodd" d="M131.622 156.147L131.622 164.504L133.364 162.796L135.009 164.593L136.653 162.796L138.298 164.593L139.943 162.796L141.588 164.593L143.33 162.796L144.975 164.593L146.62 162.796L146.619 141.053L131.622 156.147ZM111.786 156.148L111.786 164.504L110.045 162.796L108.4 164.593L106.755 162.796L105.11 164.593L103.465 162.796L101.82 164.593L100.175 162.796L98.5302 164.593L96.7886 162.796L96.7883 141.053L111.786 156.148ZM111.786 119.31L111.786 110.954L110.045 112.571L108.4 110.954L106.755 112.571L105.11 110.954L103.465 112.571L101.82 110.954L100.175 112.571L98.5302 110.954L96.7886 112.571L96.7883 134.405L111.786 119.31ZM131.622 119.31V110.954L133.364 112.571L135.009 110.954L136.653 112.571L138.298 110.954L139.943 112.571L141.588 110.954L143.233 112.571L144.975 110.954L146.62 112.571L146.62 134.404L131.622 119.31ZM83.5325 151.116L81.8876 149.409L80.2427 151.206L78.5978 149.409L76.9529 151.206L75.308 149.409L73.5663 151.206L71.9214 149.409L70.2765 151.206V124.252L71.9214 126.049L73.5663 124.252L75.308 126.049L76.9529 124.252L78.5978 126.049L80.2427 124.252L81.8876 126.049L83.5325 124.252L83.5322 134.405L76.9529 134.404L73.5664 137.728L76.9529 141.053L83.5322 141.053L83.5325 151.116ZM159.876 151.116L161.521 149.409L163.165 151.206L164.81 149.409L166.552 151.206L168.197 149.409L169.842 151.206L171.487 149.409L173.132 151.206V124.252L171.487 126.049L169.842 124.252L168.197 126.049L166.552 124.252L164.81 126.049L163.165 124.252L161.521 126.049L159.876 124.252L159.875 134.405L166.552 134.404L169.842 137.728L166.552 141.053L159.875 141.053L159.876 151.116Z" fill="#00843D"/>
<path fill-rule="evenodd" clip-rule="evenodd" d="M103.562 157.226C103.562 157.226 102.207 158.484 102.207 159.203C102.207 159.831 103.658 161.179 104.336 161.179C105.11 161.179 106.368 159.831 106.368 159.203C106.368 158.574 105.013 157.226 105.013 157.226V154.53C105.013 154.53 107.916 159.113 107.916 157.136C107.916 155.698 105.013 153.273 105.013 153.273H103.562C103.562 153.273 100.659 156.148 100.659 157.136C100.659 159.113 103.562 154.53 103.562 154.53V157.226Z" fill="white"/>
<path fill-rule="evenodd" clip-rule="evenodd" d="M120.882 162.347C120.882 162.347 119.237 164.144 119.237 165.042C119.237 165.941 120.978 167.918 121.753 167.918C122.72 167.918 124.172 166.031 124.172 165.132C124.172 164.234 122.527 162.347 122.527 162.347V158.573C122.527 158.573 125.429 164.683 125.429 161.898C125.429 160.101 122.527 156.776 122.527 156.776H120.882C120.882 156.776 117.495 160.909 117.979 161.898C117.979 164.683 120.882 158.573 120.882 158.573V162.347Z" fill="#CA3745"/>
<path d="M103.437 139.335C105.247 139.335 106.714 138.573 106.714 137.633C106.714 136.693 105.247 135.931 103.437 135.931C101.626 135.931 100.159 136.693 100.159 137.633C100.159 138.573 101.626 139.335 103.437 139.335Z" fill="#00843D"/>
<path d="M121.724 139.335C123.534 139.335 125.001 138.573 125.001 137.633C125.001 136.693 123.534 135.931 121.724 135.931C119.914 135.931 118.446 136.693 118.446 137.633C118.446 138.573 119.914 139.335 121.724 139.335Z" fill="#00843D"/>
<path d="M139.914 139.335C141.724 139.335 143.191 138.573 143.191 137.633C143.191 136.693 141.724 135.931 139.914 135.931C138.104 135.931 136.637 136.693 136.637 137.633C136.637 138.573 138.104 139.335 139.914 139.335Z" fill="#00843D"/>
<path fill-rule="evenodd" clip-rule="evenodd" d="M103.271 118.411C103.271 118.411 101.916 117.064 101.916 116.435C101.916 115.806 103.368 114.368 103.948 114.368C104.722 114.368 105.98 115.716 105.98 116.345C105.98 117.064 104.626 118.411 104.626 118.411V121.107C104.626 121.107 107.625 116.435 107.625 118.411C107.625 119.849 104.722 122.365 104.722 122.365H103.271C103.271 122.365 100.271 119.49 100.271 118.501C100.271 116.525 103.174 121.017 103.174 121.017V118.321L103.271 118.411Z" fill="white"/>
<path fill-rule="evenodd" clip-rule="evenodd" d="M120.495 113.2C120.495 113.2 118.85 111.404 118.85 110.505C118.85 109.607 120.689 107.72 121.366 107.72C122.334 107.72 123.882 109.517 123.882 110.415C123.882 111.314 122.237 113.29 122.237 113.29V116.884C122.237 116.884 125.14 110.864 125.14 113.65C125.14 115.447 122.237 118.861 122.237 118.861H120.398C120.398 118.861 117.012 114.638 117.496 113.65C117.496 110.954 120.398 116.974 120.398 116.974V113.2H120.495Z" fill="#CA3745"/>
<path fill-rule="evenodd" clip-rule="evenodd" d="M138.879 157.226C138.879 157.226 137.524 158.484 137.524 159.203C137.524 159.831 138.976 161.179 139.653 161.179C140.427 161.179 141.685 159.831 141.685 159.203C141.685 158.574 140.33 157.226 140.33 157.226V154.53C140.33 154.53 143.233 159.113 143.233 157.136C143.233 155.698 140.33 153.273 140.33 153.273H138.782C138.782 153.273 135.879 156.148 135.879 157.136C135.879 159.113 138.782 154.53 138.782 154.53V157.226H138.879ZM138.589 118.412C138.589 118.412 137.234 117.064 137.234 116.345C137.234 115.806 138.685 114.368 139.266 114.368C140.04 114.368 141.298 115.716 141.298 116.345C141.298 117.064 139.943 118.412 139.943 118.412V121.107C139.943 121.107 142.943 116.435 142.943 118.412C142.943 119.849 140.04 122.365 140.04 122.365H138.589C138.589 122.365 135.589 119.49 135.589 118.501C135.589 116.525 138.492 121.017 138.492 121.017V118.322L138.589 118.412Z" fill="white"/>
<path fill-rule="evenodd" clip-rule="evenodd" d="M89.1447 147.882C89.1447 147.882 87.3063 149.14 87.3063 149.679C87.3063 150.308 89.2415 151.656 90.1123 151.566C91.0799 151.566 92.8216 150.398 92.8216 149.769C92.8216 149.14 90.9832 147.882 90.9832 147.882V145.366C90.9832 145.366 94.273 149.409 94.273 147.612C94.273 146.355 90.9832 144.108 90.9832 144.108H89.1447C89.1447 144.108 85.3711 146.984 85.9517 147.612C85.9517 149.409 89.1447 145.366 89.1447 145.366V147.882ZM88.7577 128.924C88.7577 128.924 86.9193 127.666 86.9193 127.037C86.9193 126.408 88.8544 125.15 89.7253 125.24C90.6929 125.24 92.4345 126.408 92.4345 127.037C92.4345 127.666 90.5961 128.834 90.5961 128.834V131.35C90.5961 131.35 93.8859 127.307 93.8859 129.194C93.8859 130.362 90.5961 132.608 90.5961 132.608H88.7577C88.7577 132.608 84.9841 129.823 85.5646 129.194C85.5646 127.397 88.7577 131.35 88.7577 131.35V128.924ZM152.909 147.433C152.909 147.433 150.974 148.691 150.974 149.32C150.974 149.948 153.006 151.206 153.877 151.206C154.844 151.206 156.586 149.949 156.586 149.409C156.586 148.691 154.651 147.433 154.651 147.433V145.007C154.651 145.007 157.941 149.05 157.941 147.163C157.941 145.995 154.748 143.749 154.748 143.749H152.812C152.812 143.749 149.136 146.534 149.619 147.163C149.619 149.05 152.909 145.007 152.909 145.007V147.523V147.433ZM152.522 128.565C152.522 128.565 150.587 127.307 150.587 126.678C150.587 126.049 152.619 124.791 153.49 124.791C154.457 124.791 156.199 126.049 156.199 126.588C156.199 127.307 154.264 128.475 154.264 128.475V130.991C154.264 130.991 157.554 126.947 157.554 128.744C157.554 130.002 154.361 132.248 154.361 132.248H152.425C152.425 132.248 148.749 129.463 149.232 128.834C149.232 126.947 152.522 130.991 152.522 130.991V128.475V128.565Z" fill="#CA3745"/>
<path fill-rule="evenodd" clip-rule="evenodd" d="M75.5987 147.702C75.0181 146.534 75.2116 145.995 75.2116 145.366C75.2116 144.737 76.8565 143.569 77.4371 143.569C78.2112 143.569 79.469 144.827 79.469 145.545C79.469 146.174 79.469 146.713 79.1788 147.881L78.4047 145.995C77.3403 148.69 77.2436 148.69 76.663 145.905L75.6954 147.702H75.5987ZM75.5987 128.384C75.1149 129.552 75.2116 130.092 75.2116 130.72C75.2116 131.349 76.8565 132.517 77.5339 132.517C78.3079 132.517 79.5658 131.26 79.5658 130.541C79.5658 129.912 79.5658 129.373 79.2755 128.205L78.4047 130.092C77.4371 127.396 77.3403 127.396 76.663 130.181L75.6954 128.384H75.5987ZM165.101 147.432C164.521 146.264 164.617 145.725 164.617 145.096C164.617 144.467 166.359 143.299 166.94 143.299C167.714 143.299 168.971 144.647 168.971 145.276C168.971 145.905 168.971 146.534 168.681 147.612L167.81 145.725C166.843 148.421 166.746 148.51 166.069 145.725L165.101 147.432ZM165.101 128.205C164.521 129.283 164.714 129.822 164.714 130.541C164.714 131.08 166.359 132.338 166.94 132.338C167.714 132.338 169.068 130.99 169.068 130.361C169.068 129.642 169.068 129.103 168.778 127.935L167.81 129.912C166.843 127.127 166.843 127.037 166.165 129.912L165.198 128.115L165.101 128.205Z" fill="white"/>
<path fill-rule="evenodd" clip-rule="evenodd" d="M111.496 169.983V165.131H96.0147V155.607H82.2749V152.463H70.2767V123.712H82.2749V120.567H96.0147V111.043H111.496V106.281H132.009V111.043H147.491V120.567H161.134V123.802H173.229V152.463H161.231V155.607H147.587V165.131H132.106V169.893H111.593L111.496 169.983ZM109.755 171.51V166.749H94.2731V157.225H80.63V153.99H68.6318V122.184H80.63V119.04H94.2731V109.426H109.755V104.664H133.751V109.426H149.232V119.04H162.875V122.184H174.874V153.99H162.875V157.225H149.136V166.749H133.654V171.51H109.755Z" fill="#CA3745"/>
<path fill-rule="evenodd" clip-rule="evenodd" d="M109.708 104.617H133.797V109.379H149.279V118.993H162.922V122.137H174.92V154.037H162.922V157.271H149.182V166.795H133.701V171.557H109.754L109.755 171.51L109.708 171.51V166.795H94.2262V157.271H80.5831V154.037H68.585V122.137H80.5831V118.993H94.2262V109.379H109.708V104.617ZM109.801 171.464H133.607V166.702H149.089V157.178H162.829V153.943H174.827V122.231H162.829V119.086H149.186V109.472H133.704V104.71H109.801V109.472H94.3194V119.086H80.6764V122.231H68.6782V153.943H80.6764V157.178H94.3194V166.702H109.801V171.464ZM111.449 106.234H132.056V110.996H147.537V120.52H161.18V123.755H173.275V152.509H161.277V155.654H147.634V165.178H132.152V169.94H111.611L111.449 170.09V165.178H95.9679V155.654H82.228V152.509H70.2299V123.665H82.228V120.52H95.9679V110.996H111.449V106.234ZM111.543 106.328V111.09H96.0611V120.613H82.3213V123.758H70.3231V152.416H82.3213V155.561H96.0611V165.084H111.543V169.876L111.574 169.846H132.059V165.084H147.541V155.561H161.184V152.416H173.182V123.848H161.087V120.613H147.444V111.09H131.962V106.328H111.543Z" fill="black"/>
</svg>
