<svg width="720" height="480" viewBox="0 0 720 480" fill="none" xmlns="http://www.w3.org/2000/svg">
<g clip-path="url(#clip0_703_561)">
<path d="M720 0H0V480H720V0Z" fill="#559EE2"/>
<path d="M359.2 240C359.2 306.274 305.474 360 239.2 360C172.926 360 119.2 306.274 119.2 240C119.2 173.726 172.926 120 239.2 120C305.474 120 359.2 173.726 359.2 240Z" fill="white"/>
<path d="M366.4 239.6C366.4 292.84 323.24 336 270 336C216.76 336 173.6 292.84 173.6 239.6C173.6 186.36 216.76 143.2 270 143.2C323.24 143.2 366.4 186.36 366.4 239.6Z" fill="#559EE2"/>
<path d="M375.482 185.745L400.997 221.159L442.562 207.836L416.766 243.046L442.282 278.461L400.823 264.807L375.027 300.018L375.201 256.37L333.742 242.716L375.308 229.393L375.482 185.745Z" fill="white"/>
</g>
<defs>
<clipPath id="clip0_703_561">
<rect width="720" height="480" fill="white"/>
</clipPath>
</defs>
</svg>
