<svg width="720" height="480" viewBox="0 0 720 480" fill="none" xmlns="http://www.w3.org/2000/svg">
<g clip-path="url(#clip0_703_566)">
<path d="M0 319H720V479H0V319Z" fill="#1EB53A"/>
<path d="M0 -1H720V159H0V-1Z" fill="#0099B5"/>
<path d="M0 153H720V325H0V153Z" fill="#CE1126"/>
<path d="M0 162H720V316H0V162Z" fill="white"/>
<path d="M134.4 133.399C166.211 133.399 192 107.611 192 75.7992C192 43.9876 166.211 18.1992 134.4 18.1992C102.588 18.1992 76.7998 43.9876 76.7998 75.7992C76.7998 107.611 102.588 133.399 134.4 133.399Z" fill="white"/>
<path d="M153.6 133.399C185.412 133.399 211.2 107.611 211.2 75.7992C211.2 43.9876 185.412 18.1992 153.6 18.1992C121.788 18.1992 96 43.9876 96 75.7992C96 107.611 121.788 133.399 153.6 133.399Z" fill="#0099B5"/>
<path d="M261.5 18L264.082 25.9463H272.437L265.678 30.8574L268.26 38.8037L261.5 33.8926L254.74 38.8037L257.322 30.8574L250.563 25.9463H258.918L261.5 18Z" fill="white"/>
<path d="M307.5 18L310.082 25.9463H318.437L311.678 30.8574L314.26 38.8037L307.5 33.8926L300.74 38.8037L303.322 30.8574L296.563 25.9463H304.918L307.5 18Z" fill="white"/>
<path d="M353.5 18L356.082 25.9463H364.437L357.678 30.8574L360.26 38.8037L353.5 33.8926L346.74 38.8037L349.322 30.8574L342.563 25.9463H350.918L353.5 18Z" fill="white"/>
<path d="M353.5 64L356.082 71.9463H364.437L357.678 76.8574L360.26 84.8037L353.5 79.8926L346.74 84.8037L349.322 76.8574L342.563 71.9463H350.918L353.5 64Z" fill="white"/>
<path d="M353.5 110L356.082 117.946H364.437L357.678 122.857L360.26 130.804L353.5 125.893L346.74 130.804L349.322 122.857L342.563 117.946H350.918L353.5 110Z" fill="white"/>
<path d="M307.5 110L310.082 117.946H318.437L311.678 122.857L314.26 130.804L307.5 125.893L300.74 130.804L303.322 122.857L296.563 117.946H304.918L307.5 110Z" fill="white"/>
<path d="M261.5 110L264.082 117.946H272.437L265.678 122.857L268.26 130.804L261.5 125.893L254.74 130.804L257.322 122.857L250.563 117.946H258.918L261.5 110Z" fill="white"/>
<path d="M215.5 110L218.082 117.946H226.437L219.678 122.857L222.26 130.804L215.5 125.893L208.74 130.804L211.322 122.857L204.563 117.946H212.918L215.5 110Z" fill="white"/>
<path d="M169.5 110L172.082 117.946H180.437L173.678 122.857L176.26 130.804L169.5 125.893L162.74 130.804L165.322 122.857L158.563 117.946H166.918L169.5 110Z" fill="white"/>
<path d="M307.5 64L310.082 71.9463H318.437L311.678 76.8574L314.26 84.8037L307.5 79.8926L300.74 84.8037L303.322 76.8574L296.563 71.9463H304.918L307.5 64Z" fill="white"/>
<path d="M261.5 64L264.082 71.9463H272.437L265.678 76.8574L268.26 84.8037L261.5 79.8926L254.74 84.8037L257.322 76.8574L250.563 71.9463H258.918L261.5 64Z" fill="white"/>
<path d="M215.5 64L218.082 71.9463H226.437L219.678 76.8574L222.26 84.8037L215.5 79.8926L208.74 84.8037L211.322 76.8574L204.563 71.9463H212.918L215.5 64Z" fill="white"/>
</g>
<defs>
<clipPath id="clip0_703_566">
<rect width="720" height="480" fill="white"/>
</clipPath>
</defs>
</svg>
